<?xml version="1.0" standalone="no"?>
<!DOCTYPE svg PUBLIC "-//W3C//DTD SVG 20010904//EN"
 "http://www.w3.org/TR/2001/REC-SVG-20010904/DTD/svg10.dtd">
<svg version="1.0" xmlns="http://www.w3.org/2000/svg"
 width="771.000000pt" height="698.000000pt" viewBox="0 0 771.000000 698.000000"
 preserveAspectRatio="xMidYMid meet">
<metadata>
Created by potrace 1.16, written by Peter Selinger 2001-2019
</metadata>
<g transform="translate(0.000000,698.000000) scale(0.100000,-0.100000)"
fill="#000000" stroke="none">
<path d="M3703 6629 c4 -63 7 -134 7 -158 l0 -44 33 7 c17 3 68 13 112 22 105
21 98 21 263 5 79 -7 145 -11 148 -8 3 3 7 13 8 23 2 10 23 29 48 43 161 92
216 121 227 121 6 0 11 4 11 8 0 5 10 14 23 21 12 6 42 22 67 36 l45 24 -151
1 c-83 0 -307 3 -499 7 l-348 6 6 -114z"/>
<path d="M4761 6664 c112 -150 182 -234 196 -234 20 0 444 79 463 86 12 5
-561 175 -669 199 l-33 7 43 -58z"/>
<path d="M3240 6530 c-96 -50 -113 -63 -47 -35 52 21 59 18 12 -6 -22 -11 -49
-18 -61 -15 -13 4 -26 -2 -38 -15 -9 -12 -24 -18 -32 -15 -8 3 -13 2 -9 -3 7
-12 -51 -41 -82 -41 -15 0 -23 -6 -23 -17 0 -12 -3 -14 -8 -6 -9 13 -45 -4
-49 -24 -3 -11 75 -72 87 -69 3 0 19 -11 35 -26 30 -28 45 -35 45 -20 0 4 11
21 25 37 18 22 24 26 25 13 0 -9 -7 -23 -15 -31 -8 -8 -12 -17 -9 -20 3 -3
-14 -9 -37 -14 l-43 -8 -63 -179 c-65 -184 -77 -237 -28 -121 16 36 30 64 32
61 2 -2 -13 -40 -32 -86 -20 -45 -35 -84 -33 -86 3 -2 64 92 138 209 107 170
133 219 133 247 0 19 2 29 5 21 7 -21 31 44 25 68 -7 28 -21 17 -40 -31 -13
-32 -18 -37 -25 -24 -7 12 -1 26 21 53 17 21 31 41 31 46 0 5 6 15 14 22 12
12 15 12 20 0 3 -8 1 -17 -4 -20 -6 -4 -10 -16 -10 -28 1 -19 3 -18 14 8 7 17
11 37 9 46 -3 8 5 32 17 52 12 20 19 41 15 47 -5 9 -2 11 20 10 3 0 11 4 18
10 6 6 21 17 32 25 34 24 14 16 -85 -35z"/>
<path d="M5511 6333 c33 -98 63 -185 68 -193 6 -10 0 -26 -19 -50 -15 -19 -64
-89 -109 -155 -45 -66 -105 -151 -132 -190 -77 -107 -76 -107 -32 -91 21 8
110 39 198 71 156 55 259 92 320 116 17 6 48 13 70 15 22 2 117 13 210 24 94
11 205 22 249 24 l78 4 61 58 61 59 -52 -61 c-29 -34 -52 -64 -52 -68 0 -3 68
-6 150 -6 83 0 150 3 150 6 0 22 -129 239 -169 284 l-49 54 -58 -11 c-39 -8
-73 -9 -99 -3 -36 8 -35 9 15 4 39 -3 51 -2 40 6 -11 7 -4 10 30 10 33 1 40 3
25 9 -32 13 -866 183 -872 178 -2 -3 5 -35 16 -73 11 -37 16 -63 12 -58 -4 5
-43 55 -85 112 -43 56 -79 102 -81 102 -1 0 24 -80 56 -177z"/>
<path d="M3970 6465 c0 -6 -10 -23 -23 -38 l-23 -29 -97 12 c-54 7 -100 10
-102 8 -3 -3 62 -47 145 -98 82 -51 148 -96 146 -99 -2 -3 7 -7 20 -7 13 -1
24 0 24 3 0 14 -74 239 -82 248 -5 6 -8 6 -8 0z"/>
<path d="M4276 6418 c5 -7 2 -9 -9 -5 -10 4 -18 0 -22 -11 -7 -22 -62 -82 -75
-82 -5 0 -10 -6 -10 -14 0 -8 -15 -31 -34 -52 l-35 -39 172 -5 c181 -6 178 -6
-95 -16 -32 -1 -64 -6 -71 -12 -10 -9 -17 -8 -25 0 -8 8 -13 8 -16 -3 -3 -8
-28 -72 -55 -144 -45 -119 -48 -131 -31 -137 38 -14 214 -12 265 4 28 9 78 24
112 33 73 21 76 25 126 157 40 106 42 112 27 103 -5 -3 -7 0 -4 8 6 17 -32 48
-50 41 -15 -6 -50 31 -42 44 3 5 -24 39 -59 76 -61 62 -86 81 -69 54z"/>
<path d="M3640 6363 c-36 -26 -66 -51 -68 -55 -2 -4 -8 -8 -13 -8 -12 0 -49
-32 -44 -39 2 -3 -9 -7 -23 -8 -99 -7 -153 -10 -197 -12 -36 -1 -46 -4 -35
-11 13 -8 13 -11 -2 -27 -14 -14 -20 -15 -30 -4 -11 10 -10 11 5 6 24 -10 21
12 -4 26 -16 8 -24 8 -33 -1 -8 -8 -7 -10 7 -5 10 4 17 2 17 -4 0 -6 -6 -11
-12 -11 -8 0 -9 -3 -3 -8 6 -4 23 -26 38 -50 17 -25 32 -40 39 -36 8 5 9 1 5
-10 -8 -20 39 -89 54 -80 5 3 7 10 3 15 -3 5 -10 6 -16 3 -8 -5 -9 -1 -5 10 4
10 3 15 -3 11 -6 -3 -10 -1 -10 4 0 12 35 9 47 -4 5 -4 2 -5 -4 -1 -15 9 -18
-10 -3 -19 6 -4 7 -12 1 -22 -11 -20 11 -45 35 -41 9 2 19 -3 22 -11 3 -8 0
-11 -7 -7 -6 4 -11 1 -11 -7 0 -18 75 -113 95 -121 9 -3 15 -11 14 -18 -6 -46
4 -47 121 -14 47 14 138 39 203 57 137 37 132 18 52 184 -29 61 -58 125 -65
142 -7 18 -16 30 -21 27 -5 -3 -6 3 -2 12 5 13 3 15 -7 9 -8 -5 -11 -4 -7 2 9
15 -27 108 -43 108 -7 0 -15 6 -18 14 -3 8 0 11 7 7 15 -10 14 6 -1 27 -12 15
-20 11 -78 -30z"/>
<path d="M1100 6380 c6 -11 16 -17 22 -14 7 4 8 3 4 -5 -9 -13 74 -152 86
-145 4 3 5 -1 3 -8 -3 -8 2 -22 11 -33 8 -11 12 -13 8 -5 -4 9 -3 12 2 7 5 -5
9 -14 9 -20 0 -21 117 -207 126 -201 5 3 6 -3 2 -12 -4 -12 -3 -15 5 -10 8 4
10 2 6 -7 -3 -8 -1 -18 5 -21 10 -6 35 39 173 317 21 44 40 84 41 90 1 6 8 18
15 25 17 19 15 32 -5 32 -10 0 -117 7 -238 15 -297 20 -288 20 -275 -5z"/>
<path d="M2837 6334 c-27 -14 -45 -29 -41 -35 4 -8 -1 -9 -16 -4 -15 5 -20 4
-16 -4 4 -6 0 -11 -8 -11 -21 0 -20 -13 3 -34 12 -11 21 -13 25 -7 4 5 -2 15
-11 21 -15 8 -12 9 12 4 24 -4 27 -3 15 6 -13 10 -12 11 3 6 15 -5 17 -2 12
13 -4 14 0 23 14 31 17 9 20 8 15 -5 -3 -8 -11 -12 -17 -8 -6 4 -8 0 -4 -10 7
-19 -46 -120 -58 -110 -4 5 -5 1 -3 -7 5 -15 -20 -75 -28 -67 -9 9 -12 67 -4
62 5 -3 6 -13 3 -22 -6 -15 -5 -16 9 -3 14 13 14 17 -1 40 -14 23 -14 24 1 12
13 -10 17 -10 22 5 10 25 -40 69 -60 53 -7 -7 -19 -8 -25 -4 -8 5 -9 3 -4 -6
6 -10 3 -12 -13 -8 -15 4 -26 -1 -37 -18 -17 -27 -14 -29 18 -13 21 10 21 10
3 -5 -11 -9 -15 -16 -9 -16 6 0 14 -7 17 -16 5 -13 4 -14 -7 -6 -8 7 -18 8
-22 4 -5 -4 -5 -1 -1 6 8 14 -10 17 -19 2 -3 -5 -11 -10 -18 -10 -6 0 -2 7 9
15 32 24 5 17 -60 -16 -76 -38 -82 -44 -67 -63 15 -18 -5 -34 -22 -17 -8 8 -7
11 3 11 10 0 11 3 4 10 -16 16 -47 1 -34 -15 8 -9 8 -15 0 -20 -5 -3 -10 -1
-10 4 0 6 -8 11 -17 11 -14 0 -15 -2 -4 -9 9 -6 5 -8 -13 -8 -27 0 -43 -9 -34
-18 3 -3 38 -8 79 -11 41 -3 101 -9 134 -14 35 -4 65 -4 72 2 7 6 13 4 15 -4
13 -39 82 -5 355 179 16 11 12 18 -47 75 -36 34 -64 66 -62 70 3 10 5 11 -51
-18z"/>
<path d="M2436 6148 l-168 -80 -64 63 c-38 38 -67 59 -72 54 -5 -6 -30 -40
-55 -77 -53 -78 -57 -75 82 -53 52 9 96 13 99 11 3 -3 -19 -63 -48 -133 -70
-172 -81 -194 -94 -192 -6 1 -18 0 -26 -3 -8 -4 -37 -12 -63 -18 -36 -10 -47
-17 -42 -28 4 -12 2 -12 -8 -3 -10 8 -27 7 -65 -4 -29 -9 -52 -20 -52 -24 0
-5 9 -7 20 -4 11 3 20 0 20 -6 0 -14 -47 -15 -52 0 -2 7 -12 7 -31 0 -15 -6
-27 -9 -27 -6 0 2 50 85 110 185 61 99 110 183 110 185 0 3 -72 -52 -159 -122
l-159 -128 44 -47 c24 -26 44 -51 44 -56 0 -5 -38 -9 -85 -10 -84 -1 -192 -29
-214 -56 -10 -13 -94 -326 -89 -332 2 -2 49 53 103 121 l98 125 26 -23 c24
-22 68 -27 56 -6 -4 5 -1 9 4 9 6 0 11 -7 11 -15 0 -9 9 -15 23 -15 12 0 121
-7 242 -15 268 -18 255 -18 251 -2 -1 6 -1 9 1 5 8 -14 31 -9 37 8 3 8 11 12
17 9 6 -5 -1 -17 -20 -34 -20 -17 -73 -108 -151 -262 l-120 -235 121 -57 121
-56 281 35 c155 20 291 40 303 46 13 6 27 30 39 66 10 32 20 62 22 69 3 8 -10
13 -39 16 l-43 4 43 1 c23 1 42 4 42 7 0 18 -92 391 -98 396 -4 3 -47 28 -97
54 -49 26 -118 63 -153 82 -62 35 -63 35 -85 17 -68 -57 -107 -100 -107 -120
0 -13 -4 -26 -10 -29 -6 -4 -7 1 -3 11 5 14 3 15 -18 4 -23 -13 -23 -12 -9 6
8 10 22 24 29 30 17 14 21 7 -79 136 -36 45 -69 88 -73 95 -4 6 57 -17 136
-52 121 -54 143 -60 148 -46 4 9 1 19 -5 23 -6 4 -7 8 -2 8 5 0 4 6 -2 13 -18
23 -94 266 -86 278 4 7 3 9 -2 6 -5 -3 -17 14 -25 38 l-16 44 81 42 c137 70
211 110 221 120 14 14 12 13 -169 -73z"/>
<path d="M4520 6184 c1 -11 9 -86 18 -167 12 -101 15 -150 7 -154 -5 -4 -6 -2
-2 2 7 9 -97 75 -118 75 -9 0 -115 -160 -115 -173 0 -3 76 -3 170 0 l169 6
-66 -154 c-36 -85 -69 -157 -72 -161 -3 -3 -53 63 -110 148 -57 85 -106 153
-109 150 -2 -3 -18 2 -34 10 -16 8 -34 12 -41 8 -7 -4 -9 -3 -4 1 4 5 -18 19
-50 32 -61 25 -77 28 -68 14 3 -5 1 -12 -4 -16 -6 -3 -8 3 -6 13 2 15 -8 23
-48 37 -29 10 -58 22 -65 28 -7 5 -14 8 -16 6 -2 -2 -34 -65 -71 -139 -36 -74
-73 -148 -82 -164 -15 -28 -15 -28 8 -21 18 5 16 1 -9 -15 -18 -11 -131 -45
-250 -76 -119 -30 -250 -64 -290 -75 -41 -11 -76 -18 -78 -16 -3 3 14 27 37
53 22 27 48 58 58 69 9 11 63 76 120 144 l104 123 -306 -4 c-168 -2 -308 -6
-312 -10 -4 -3 1 -18 11 -33 11 -17 13 -25 4 -23 -7 2 -15 -3 -18 -11 -3 -9 0
-11 9 -6 11 6 12 5 2 -5 -18 -20 -29 -3 -14 21 7 12 10 23 8 25 -9 9 -27 -25
-41 -78 -8 -31 -19 -66 -25 -77 -6 -11 -8 -27 -4 -37 4 -11 3 -15 -4 -11 -6 4
-13 -4 -15 -18 -4 -20 -1 -25 16 -26 15 -1 13 -3 -9 -9 -16 -4 -25 -9 -20 -10
15 -2 34 -7 87 -19 26 -6 54 -8 62 -5 9 3 16 1 16 -5 0 -6 9 -11 20 -11 11 0
20 5 20 10 0 6 8 10 18 9 10 0 12 -3 5 -6 -22 -8 -14 -26 9 -20 12 4 28 1 35
-5 10 -8 20 -8 38 2 22 12 65 7 52 -7 -4 -3 0 -11 8 -17 13 -9 -10 -38 -135
-171 l-150 -160 0 -87 0 -88 -27 11 c-22 8 -30 6 -52 -14 -256 -233 -364 -330
-407 -367 -29 -25 -53 -48 -53 -51 -1 -4 10 -9 24 -11 14 -3 25 -1 25 3 0 5
16 9 35 9 18 0 56 4 82 10 26 5 66 11 88 14 22 2 75 9 118 16 42 6 81 9 86 5
5 -3 12 -1 16 5 3 5 20 10 36 10 29 0 28 -1 -28 -47 -32 -25 -83 -67 -113 -92
-30 -25 -59 -49 -65 -53 -5 -5 -91 -72 -189 -150 -99 -79 -182 -142 -186 -141
-4 1 -7 -5 -7 -12 0 -10 8 -13 21 -10 12 2 122 18 246 35 124 17 302 41 395
54 l170 24 135 138 c158 163 153 151 -10 -24 -64 -68 -114 -131 -113 -140 13
-109 17 -132 22 -132 3 0 68 102 144 228 75 125 145 239 154 254 10 15 14 31
10 35 -4 4 -122 14 -262 23 -139 8 -256 17 -258 20 -3 3 119 72 270 153 151
82 277 146 281 143 3 -3 0 -78 -7 -167 -7 -89 -9 -165 -4 -169 6 -5 527 -213
616 -246 16 -6 17 4 17 124 l0 131 68 21 c87 28 186 37 216 20 18 -9 50 -10
146 -1 68 6 127 8 130 4 11 -12 161 -405 157 -409 -2 -3 -46 11 -98 29 -210
75 -280 99 -284 96 -5 -6 298 -209 310 -208 13 1 74 73 199 232 55 70 101 125
103 123 2 -2 -12 -68 -32 -146 l-36 -143 45 -46 c24 -25 63 -65 85 -89 26 -29
45 -41 53 -36 15 9 173 131 363 279 72 56 136 105 144 110 11 7 13 -27 8 -216
-7 -253 -14 -249 70 -41 l46 112 51 -5 c28 -3 110 -12 181 -20 72 -7 165 -17
207 -21 l78 -6 11 -42 c23 -90 33 -121 38 -128 3 -4 137 -34 296 -68 160 -33
304 -68 320 -77 17 -9 38 -21 48 -27 14 -9 21 -7 30 5 13 16 50 39 64 39 4 0
-3 -9 -17 -20 -14 -11 30 6 97 37 67 31 121 58 119 60 -1 2 -39 -11 -84 -27
-66 -24 -82 -27 -82 -15 0 20 -6 19 -42 -6 l-30 -22 16 32 c9 17 14 31 10 31
-4 0 -33 -18 -65 -39 -38 -26 -59 -35 -59 -26 0 8 7 62 16 121 9 58 12 110 7
114 -4 4 -114 29 -243 55 -129 27 -238 51 -242 54 -4 3 13 126 38 274 24 147
43 271 41 276 -1 4 12 30 29 57 27 42 94 157 171 294 11 19 31 52 43 73 19 33
21 41 9 49 -11 8 -10 9 4 4 9 -3 17 -4 17 -2 0 5 -143 266 -198 360 -3 5 -1 7
4 4 5 -3 108 -18 229 -34 l220 -27 121 -111 c67 -61 125 -117 128 -124 5 -12
-33 -101 -44 -102 -3 0 -50 74 -104 165 -54 91 -102 163 -106 160 -17 -11
-235 -277 -235 -287 0 -10 80 -56 290 -167 39 -20 99 -56 134 -79 35 -23 67
-42 70 -42 3 0 7 -42 9 -93 l3 -92 -49 -48 -49 -48 -27 168 c-15 92 -30 176
-32 185 -4 15 -18 7 -77 -43 -40 -34 -76 -66 -82 -73 -5 -6 -39 -36 -73 -66
l-64 -54 113 -109 113 -109 -132 66 c-73 36 -132 64 -132 60 0 -3 44 -56 99
-119 98 -112 99 -113 137 -229 21 -64 41 -113 45 -109 4 5 17 44 29 88 12 44
26 94 31 110 8 26 26 38 151 97 78 38 143 66 145 64 2 -2 -22 -56 -53 -120
-32 -64 -55 -118 -52 -121 3 -3 22 -6 43 -8 l37 -2 99 215 c54 118 99 221 99
229 0 8 -10 45 -22 83 -22 69 -68 129 -249 326 l-49 53 0 84 0 83 -112 59
c-62 32 -121 60 -131 63 -10 3 -18 8 -17 13 1 14 -31 67 -41 67 -6 0 -8 4 -5
9 3 5 -2 19 -12 32 -9 13 -28 44 -41 69 -61 113 -60 112 -170 148 l-103 33
-166 -88 -166 -89 -102 -170 c-56 -93 -115 -189 -130 -214 -16 -25 -54 -108
-85 -185 l-55 -140 -45 -1 -44 -2 42 7 41 6 -159 200 c-88 110 -170 210 -182
221 -26 26 -424 197 -438 189 -5 -4 -9 0 -9 7 0 7 -25 33 -54 58 -30 24 -52
48 -49 54 3 5 2 6 -3 3 -6 -3 -48 28 -95 70 -105 94 -157 134 -337 259 -79 54
-152 105 -163 113 -17 12 -19 11 -19 -5z m-348 -941 c-5 -10 -54 -173 -107
-363 -54 -190 -102 -349 -106 -354 -7 -8 -137 18 -166 33 -8 4 25 72 98 201
60 107 148 266 196 352 48 86 89 155 91 153 2 -2 -1 -12 -6 -22z"/>
<path d="M720 5866 c0 -4 12 -29 26 -57 l25 -51 42 6 c23 3 87 8 142 12 55 4
108 10 118 13 12 4 -45 20 -145 41 -89 18 -173 35 -185 38 -13 2 -23 1 -23 -2z"/>
<path d="M345 5193 c-65 -170 -126 -330 -136 -356 -18 -45 -18 -47 -2 -38 68
37 730 487 725 492 -4 3 -70 34 -147 69 -77 35 -171 78 -210 95 -38 18 -80 35
-91 39 -20 6 -29 -15 -139 -301z"/>
<path d="M1587 5193 c-32 -137 -60 -256 -63 -265 -3 -9 -95 -67 -207 -129
-142 -78 -217 -126 -254 -162 -29 -28 -53 -54 -53 -58 0 -4 44 -14 98 -24 53
-10 98 -18 100 -20 3 -2 -78 -156 -89 -169 -4 -5 -30 37 -58 93 -28 55 -54
101 -57 101 -4 0 -4 -23 0 -51 4 -28 3 -65 -3 -82 -5 -18 -11 -66 -14 -107 -4
-68 -3 -72 8 -40 11 32 18 37 101 65 180 64 180 64 143 136 -11 23 -18 47 -15
55 7 18 278 355 283 351 1 -2 -20 -77 -48 -166 -28 -90 -49 -165 -46 -167 2
-2 26 1 53 6 27 6 63 13 79 16 17 3 59 12 94 20 35 8 65 13 67 11 2 -2 -59
-23 -136 -48 -77 -24 -140 -46 -140 -49 0 -6 182 -102 185 -98 13 19 124 179
137 198 144 210 209 316 205 331 -7 25 -297 499 -306 499 -3 0 -33 -111 -64
-247z"/>
<path d="M1486 5329 c-111 -92 -123 -99 -163 -99 -24 0 -43 -4 -43 -8 0 -7
134 -45 135 -39 1 3 164 197 189 225 41 46 -3 17 -118 -79z"/>
<path d="M2190 4802 c-8 -2 -40 -16 -70 -29 -30 -14 -75 -33 -100 -43 -25 -10
-79 -34 -120 -53 -41 -19 -86 -38 -100 -42 -24 -7 -23 -8 10 -20 19 -7 51 -17
70 -23 19 -6 100 -31 180 -55 253 -79 252 -79 246 -59 -3 9 -24 85 -47 167
-23 83 -44 153 -48 156 -3 4 -13 4 -21 1z"/>
<path d="M1750 4584 c-61 -168 -97 -255 -108 -259 -8 -3 -20 2 -28 10 -19 19
-24 19 -24 -1 0 -9 5 -12 12 -8 6 4 8 3 5 -3 -4 -6 -23 -14 -43 -17 -19 -4
-43 -10 -52 -13 -9 -3 -4 4 12 15 17 12 33 19 38 16 4 -3 8 -2 8 1 0 3 -17 13
-37 22 -32 13 -35 17 -19 22 17 6 15 10 -14 34 -35 30 -55 35 -46 11 3 -8 2
-13 -3 -10 -5 3 -12 -11 -16 -31 -4 -20 -13 -46 -21 -57 -8 -11 -14 -24 -14
-29 0 -12 25 14 40 42 11 22 13 23 22 7 10 -18 4 -31 -13 -31 -5 0 -8 -4 -7
-10 0 -5 11 -9 22 -8 18 2 18 1 -3 -7 -18 -8 -27 -7 -33 2 -6 10 -8 10 -8 1 0
-7 -6 -13 -14 -13 -8 0 -16 -6 -19 -14 -3 -7 0 -13 6 -13 53 1 79 -16 40 -26
-14 -4 -12 -5 5 -6 12 0 22 4 22 10 0 15 48 3 67 -16 17 -18 27 -20 17 -4 -5
9 1 10 22 5 16 -4 31 -12 32 -17 2 -5 8 -7 12 -4 11 7 101 -15 96 -24 -2 -3 8
-7 22 -8 15 -1 71 -12 125 -26 53 -13 97 -21 97 -18 0 3 -27 78 -61 166 -33
88 -74 198 -91 245 -16 47 -32 87 -34 89 -2 2 -8 -9 -14 -25z"/>
<path d="M200 4428 c-46 -90 -99 -192 -117 -227 l-34 -65 23 -13 c35 -21 651
-313 654 -310 1 1 -61 115 -138 252 -187 336 -194 348 -246 443 -25 45 -48 82
-52 82 -4 0 -44 -73 -90 -162z"/>
<path d="M6745 4513 c14 -21 33 -54 43 -73 10 -19 34 -60 53 -90 20 -30 62
-99 94 -152 31 -54 59 -98 62 -98 3 0 3 11 1 25 -3 13 -2 22 2 20 4 -2 19 55
34 128 15 73 30 140 32 150 3 9 -1 19 -8 21 -7 3 -84 27 -170 55 -87 28 -160
51 -163 51 -3 0 6 -17 20 -37z"/>
<path d="M4506 4516 c-79 -17 -100 -25 -106 -41 -10 -27 -18 -185 -10 -185 4
0 57 53 117 118 61 64 114 120 119 125 10 10 -6 8 -120 -17z"/>
<path d="M7240 4423 c0 -12 71 -233 74 -233 3 0 23 32 46 72 47 82 51 72 -53
134 -61 36 -67 38 -67 27z"/>
<path d="M1072 4300 c-19 -22 -31 -44 -27 -50 3 -5 0 -7 -8 -5 -7 3 -21 -3
-30 -13 -17 -18 -15 -19 80 -25 54 -4 115 -7 136 -7 l39 0 -73 70 c-41 39 -76
70 -79 69 -3 0 -20 -18 -38 -39z"/>
<path d="M955 4034 l-17 -146 68 -69 c37 -38 70 -67 72 -65 2 2 -17 90 -42
194 -25 105 -46 197 -46 206 0 8 -4 17 -8 20 -5 3 -17 -60 -27 -140z"/>
<path d="M7346 4118 c51 -106 69 -138 75 -138 7 0 72 141 67 145 -4 5 -150 45
-160 45 -5 0 3 -24 18 -52z"/>
<path d="M1928 3982 c-14 -59 -52 -209 -84 -334 -32 -125 -55 -230 -52 -234 4
-3 55 2 114 10 59 9 109 15 111 12 2 -2 -38 -11 -89 -21 -51 -10 -99 -21 -106
-24 -11 -6 441 -111 476 -111 8 0 -17 26 -54 58 -151 128 -127 78 -209 430
-40 172 -75 315 -77 317 -3 3 -16 -43 -30 -103z"/>
<path d="M2250 3995 c0 -21 235 -715 242 -715 4 0 84 41 177 91 118 63 182
104 214 137 l47 48 -45 50 c-35 41 -99 84 -323 217 -285 170 -312 185 -312
172z"/>
<path d="M4770 3996 c0 -2 62 -57 137 -122 176 -152 165 -140 386 -402 104
-122 193 -222 198 -222 30 0 8 -29 -223 -289 -21 -24 -37 -45 -35 -47 2 -2 46
9 98 25 52 16 130 39 174 51 100 26 132 39 119 48 -6 4 -14 21 -18 37 -6 29
-6 28 16 -8 12 -20 26 -36 31 -34 5 1 21 25 36 52 15 28 60 108 100 178 39 71
68 134 64 140 -4 7 -44 58 -91 115 -76 93 -96 129 -46 85 24 -22 104 -83 124
-96 8 -5 -25 30 -75 78 -61 59 -91 81 -93 71 -2 -9 -13 -18 -25 -21 -128 -29
-154 -31 -121 -12 31 18 123 91 124 98 0 4 -64 19 -142 34 -135 26 -148 31
-233 83 -49 30 -103 64 -120 75 -16 11 -61 26 -100 33 -38 7 -101 20 -140 28
-103 21 -145 27 -145 22z"/>
<path d="M3069 3932 c-7 -9 -42 -53 -77 -97 -35 -44 -79 -98 -97 -120 -19 -22
-32 -41 -30 -43 1 -2 35 7 74 20 l71 23 40 114 c22 62 39 115 37 117 -2 2 -10
-4 -18 -14z"/>
<path d="M3150 3753 l25 -177 120 -78 c65 -42 121 -76 123 -73 3 3 -271 478
-287 497 -4 4 5 -72 19 -169z"/>
<path d="M6889 3759 c-19 -23 -68 -84 -111 -135 -42 -51 -79 -97 -82 -103 -10
-15 127 29 146 47 15 15 91 222 84 229 -2 2 -18 -15 -37 -38z"/>
<path d="M6234 3671 c-50 -36 -140 -99 -200 -140 -113 -78 -166 -128 -142
-135 13 -4 145 -26 163 -28 9 -1 488 73 492 76 1 1 4 24 8 51 l5 50 -57 45
c-32 25 -85 68 -118 96 l-60 50 -91 -65z"/>
<path d="M1072 3698 c-6 -18 -20 -67 -32 -108 -31 -110 -32 -111 -46 -35 l-13
70 5 -70 c4 -38 10 -77 15 -85 4 -8 9 -10 9 -4 0 6 34 24 76 40 55 21 74 33
70 44 -16 53 -60 166 -66 173 -4 5 -13 -6 -18 -25z"/>
<path d="M2977 3635 c-20 -35 -37 -65 -37 -67 0 -5 204 3 209 8 6 5 -91 96
-120 113 -12 8 -23 -3 -52 -54z"/>
<path d="M1168 3533 c-6 -34 -3 -63 6 -60 6 2 10 12 10 21 -2 16 -1 16 17 0
24 -21 24 -25 2 -17 -16 6 -16 5 -4 -11 8 -9 21 -14 30 -11 13 5 13 4 4 -6
-10 -10 -16 -9 -30 4 -28 24 -40 9 -48 -60 -7 -61 -6 -63 17 -63 40 0 67 -11
73 -30 4 -13 24 -21 73 -30 37 -6 76 -14 87 -17 16 -3 17 -2 5 6 -8 6 -15 26
-16 45 0 27 3 33 15 28 10 -4 11 -7 3 -10 -10 -3 -10 -7 -1 -18 8 -10 8 -14 0
-14 -6 0 -11 -4 -11 -9 0 -6 9 -8 20 -6 11 2 18 0 15 -4 -6 -11 43 -24 57 -15
7 4 8 3 4 -4 -4 -7 4 -16 21 -23 15 -6 38 -16 50 -22 12 -5 59 -62 104 -126
46 -64 104 -146 131 -182 26 -37 48 -71 48 -76 0 -6 -90 -16 -212 -25 l-213
-14 40 -18 c22 -10 96 -45 165 -78 l125 -59 110 16 c60 9 112 21 116 26 3 5 6
-12 7 -38 5 -144 25 -280 53 -357 17 -45 33 -84 37 -88 4 -3 31 16 61 43 30
27 57 46 60 43 3 -3 13 -62 21 -132 l15 -127 100 125 c96 120 101 131 167 294
37 94 68 176 68 182 0 7 -19 15 -43 18 -41 6 -359 33 -447 39 -32 2 -57 12
-82 31 -21 16 -42 25 -49 20 -7 -4 -9 -3 -6 3 4 6 -14 28 -40 49 -45 37 -46
38 -22 45 13 4 98 17 189 29 91 12 168 25 172 28 7 7 -364 430 -435 496 l-42
39 -279 58 c-153 32 -287 61 -297 64 -11 4 -20 3 -21 -2z"/>
<path d="M3191 3193 c-30 -136 -55 -264 -55 -285 -1 -20 -4 -34 -8 -32 -4 2
-8 -6 -10 -18 -2 -17 -13 -24 -51 -33 -27 -5 -46 -13 -43 -16 4 -4 -8 -6 -26
-6 -46 0 -117 -14 -124 -24 -3 -5 -10 -7 -15 -4 -5 4 -15 3 -21 -2 -7 -4 -15
-8 -18 -8 -8 -1 -165 -95 -158 -95 3 0 36 11 72 25 37 14 70 25 74 25 5 0 14
-42 21 -93 6 -51 14 -103 18 -115 3 -13 1 -22 -5 -22 -6 0 -87 -44 -179 -97
-92 -53 -181 -103 -196 -111 -16 -8 -27 -15 -25 -17 17 -16 288 -97 378 -114
63 -11 252 -46 419 -77 241 -44 305 -53 312 -43 7 12 49 221 49 245 0 7 -130
87 -289 178 l-289 167 41 98 40 99 76 43 c42 23 125 71 185 106 60 36 120 69
133 74 21 8 33 29 16 29 -5 0 -24 24 -43 52 -19 29 -72 104 -117 168 -45 63
-88 123 -95 133 -11 16 -21 -17 -67 -230z"/>
<path d="M4015 3430 c3 -5 0 -7 -7 -5 -8 3 -56 -11 -108 -30 -52 -20 -141 -53
-197 -73 -56 -20 -101 -37 -100 -38 10 -10 322 -81 335 -76 22 8 162 103 162
109 0 13 -73 123 -81 123 -6 0 -7 -4 -4 -10z"/>
<path d="M985 3363 c-6 -35 -89 -384 -101 -428 -3 -11 15 10 40 47 25 37 45
71 44 75 -2 5 0 8 3 8 3 0 12 5 20 12 12 9 39 9 126 -3 l110 -15 134 54 c74
30 150 62 169 70 l34 15 -42 11 c-23 7 -40 16 -37 20 2 5 -4 11 -16 14 -15 4
-18 2 -10 -7 9 -11 -247 40 -296 59 -7 2 -13 3 -13 1 0 -2 20 -53 44 -114 24
-62 41 -112 37 -111 -3 0 -44 45 -90 100 -57 68 -87 96 -91 87 -4 -7 -15 -46
-25 -85 -9 -40 -20 -73 -24 -73 -3 0 -5 67 -4 150 1 82 1 150 -1 150 -2 0 -7
-17 -11 -37z"/>
<path d="M318 3286 c-80 -33 -149 -64 -153 -67 -8 -9 137 -245 150 -245 6 0
41 70 78 156 102 232 98 220 84 219 -7 -1 -78 -29 -159 -63z"/>
<path d="M4103 3297 c3 -9 3 -16 -1 -14 -5 1 -22 -14 -38 -33 -38 -44 -106
-140 -99 -140 3 0 44 24 92 54 49 29 112 67 142 84 l55 30 -40 11 c-21 5 -57
13 -78 17 -34 6 -38 5 -33 -9z"/>
<path d="M4365 3070 c51 -111 95 -203 97 -206 5 -4 113 82 185 147 l41 38 -51
27 c-29 15 -86 45 -127 67 -41 22 -112 60 -157 84 l-81 44 93 -201z"/>
<path d="M947 2959 l-54 -114 36 -19 c20 -11 71 -37 115 -58 l78 -38 -7 27
c-7 30 -105 305 -111 312 -2 2 -27 -48 -57 -110z"/>
<path d="M4700 3033 c0 -16 -50 -378 -56 -407 -6 -29 -6 -30 17 -15 13 9 50
31 83 48 32 18 98 56 146 85 49 28 103 59 121 69 l33 18 -37 22 c-55 33 -237
144 -274 168 -18 12 -33 17 -33 12z"/>
<path d="M2382 2912 l-113 -37 143 -106 c79 -58 148 -108 154 -112 6 -4 1 38
-13 101 -13 59 -27 122 -30 139 -3 18 -9 30 -14 27 -5 -3 -6 2 -3 10 8 21 6
21 -124 -22z"/>
<path d="M3830 2943 c0 -21 78 -414 82 -419 8 -7 138 47 138 57 0 5 -35 69
-79 142 -43 73 -90 153 -106 180 -26 45 -35 56 -35 40z"/>
<path d="M3388 2861 c-142 -20 -260 -40 -264 -43 -6 -7 463 -518 475 -518 4 0
27 129 51 288 23 158 45 289 48 292 2 3 1 -38 -3 -90 -5 -52 -9 -108 -10 -125
-2 -16 -8 -97 -15 -178 -6 -82 -9 -158 -6 -171 6 -26 200 -126 215 -111 5 6
12 43 16 84 7 68 6 73 -11 68 -31 -9 -147 -35 -184 -42 l-35 -6 40 33 c21 18
75 62 119 98 44 36 79 70 77 75 -1 6 -46 94 -99 197 -94 182 -98 188 -127 187
-16 -1 -146 -18 -287 -38z"/>
<path d="M5266 2752 c57 -93 239 -353 241 -345 6 17 71 358 69 360 -1 1 -76 5
-166 9 l-164 7 20 -31z"/>
<path d="M1017 2695 c-32 -7 -59 -14 -62 -16 -2 -2 17 -41 41 -85 41 -75 48
-83 92 -99 26 -10 70 -28 97 -40 94 -42 148 -65 152 -65 2 0 -5 12 -15 28 -18
26 -49 74 -124 192 -19 30 -40 65 -47 78 -14 26 -43 27 -134 7z"/>
<path d="M4670 2424 c19 -120 28 -154 40 -154 8 1 76 15 150 33 l135 32 -40
29 c-22 15 -94 66 -159 112 -66 47 -127 89 -135 94 -15 7 -13 -11 9 -146z"/>
<path d="M4006 2495 c-27 -39 -60 -84 -73 -101 l-23 -31 79 -41 c44 -23 81
-42 83 -42 5 0 3 21 -10 195 l-7 90 -49 -70z"/>
<path d="M1543 2488 c2 -7 28 -111 57 -231 l52 -218 106 -146 c91 -126 107
-144 116 -129 6 10 44 70 84 133 39 63 72 119 72 125 0 5 -16 28 -35 51 -19
22 -35 44 -35 47 0 4 21 15 48 25 26 10 51 21 56 26 9 8 -108 87 -274 186
-268 159 -256 153 -247 131z"/>
<path d="M997 2372 l37 -109 55 23 c31 12 80 34 110 48 52 24 54 25 30 35 -22
8 -227 95 -256 107 -7 3 4 -42 24 -104z"/>
<path d="M4284 2442 c-206 -184 -209 -188 -250 -289 -22 -53 -48 -101 -59
-108 -11 -7 -42 -16 -68 -20 l-48 -6 2 -95 c1 -52 5 -96 9 -99 4 -3 24 40 45
95 21 55 41 102 45 105 4 2 28 -20 54 -50 26 -30 50 -55 54 -55 4 0 21 11 37
25 17 13 56 45 87 71 32 25 55 51 51 57 -3 5 -1 7 5 3 11 -6 199 131 195 143
-1 4 -28 64 -60 133 l-59 126 -40 -36z"/>
<path d="M1241 2331 c-57 -25 -104 -50 -105 -54 -1 -8 257 -247 262 -243 2 3
-4 45 -41 267 l-12 76 -104 -46z"/>
<path d="M2066 2110 c-20 -68 -20 -77 2 -83 13 -4 11 -5 -5 -6 -13 0 -23 -2
-23 -4 0 -2 17 -49 38 -104 31 -82 40 -98 49 -85 78 127 105 183 93 197 -7 8
-17 12 -24 8 -6 -3 -8 -3 -4 2 4 4 3 14 -3 22 -10 11 -15 11 -28 1 -14 -11
-14 -11 -4 3 10 13 5 22 -31 59 l-44 43 -16 -53z"/>
<path d="M2605 2125 c-38 -13 -137 -45 -219 -70 l-150 -48 35 -18 c20 -10 118
-54 220 -99 101 -45 185 -83 187 -85 1 -1 -110 -13 -248 -26 -137 -12 -250
-27 -250 -32 0 -8 68 -84 339 -384 36 -40 69 -73 72 -73 3 0 10 26 17 58 68
353 82 440 84 503 2 74 2 74 5 14 l4 -60 77 -32 c373 -153 442 -181 442 -176
0 5 -50 61 -250 283 -52 58 -129 143 -170 189 -86 97 -87 96 -89 -46 -1 -45
-5 -84 -10 -87 -8 -5 -7 51 3 172 4 50 2 51 -99 17z"/>
<path d="M3623 2010 c-34 -3 -63 -7 -66 -10 -2 -3 0 -43 4 -90 4 -47 9 -107
10 -133 2 -26 6 -50 10 -53 4 -2 36 15 70 38 35 23 58 43 51 46 -13 4 -101
127 -105 145 -1 7 -9 17 -17 24 -8 6 -12 14 -8 18 4 4 23 -5 42 -20 20 -15 40
-24 47 -19 8 4 9 3 5 -5 -4 -7 5 -18 23 -29 17 -9 31 -20 31 -24 0 -5 6 -8 13
-8 8 0 24 -11 37 -25 l23 -24 -27 5 c-18 3 -26 0 -26 -10 0 -8 -6 -17 -12 -19
-7 -3 -8 -6 -3 -6 6 0 25 8 44 17 31 15 37 26 58 96 14 43 23 79 21 81 -7 6
-166 10 -225 5z"/>
<path d="M4250 1963 c-85 -25 -159 -48 -163 -52 -4 -4 85 -65 199 -135 113
-70 208 -126 209 -124 5 5 -79 358 -84 357 -4 0 -76 -21 -161 -46z"/>
<path d="M3465 1888 c-24 -35 -48 -67 -53 -73 -4 -5 -31 -41 -60 -80 -28 -38
-63 -85 -77 -104 -14 -19 -23 -36 -21 -38 2 -2 28 -6 57 -8 l54 -5 34 88 c19
48 47 114 62 147 40 88 59 135 54 135 -3 0 -25 -28 -50 -62z"/>
<path d="M1513 1917 c-24 -12 -43 -23 -43 -26 0 -6 238 -188 266 -204 14 -8
-144 215 -169 240 -9 8 -22 6 -54 -10z"/>
<path d="M3970 1854 c-80 -44 -103 -63 -142 -116 -26 -35 -54 -71 -63 -80 -10
-9 -14 -22 -9 -29 4 -7 3 -10 -3 -6 -6 4 -20 -4 -33 -18 -20 -22 -11 -20 106
24 l129 47 57 114 c31 63 56 115 55 116 -1 1 -45 -22 -97 -52z"/>
<path d="M4082 1749 l3 -127 60 -5 c33 -2 61 -3 62 -3 1 1 -27 60 -62 131
l-65 130 2 -126z"/>
<path d="M3668 1743 c-9 -16 -28 -40 -42 -54 -13 -15 -43 -63 -65 -107 l-40
-80 72 30 c40 17 77 35 84 40 11 9 24 198 13 198 -3 0 -13 -12 -22 -27z"/>
<path d="M1833 1639 c98 -232 329 -734 336 -734 11 0 351 334 351 344 -1 6
-660 392 -682 400 -6 2 -9 -2 -5 -10z"/>
<path d="M4220 1570 c0 -14 -7 -88 -15 -165 -7 -77 -12 -141 -10 -143 5 -6
187 19 203 28 10 5 8 12 -8 32 -11 14 -20 29 -20 33 0 4 -24 44 -53 88 -29 45
-63 98 -75 117 -21 33 -22 34 -22 10z"/>
<path d="M3170 1566 c-34 -11 -156 -72 -270 -136 -30 -17 -97 -51 -148 -76
-54 -27 -89 -50 -85 -56 3 -6 1 -8 -5 -5 -5 4 -18 4 -27 1 -13 -6 -14 -9 -3
-16 9 -7 8 -8 -6 -4 -15 5 -37 -10 -92 -65 -40 -40 -70 -77 -67 -82 3 -6 1 -7
-4 -4 -10 6 -228 -192 -220 -199 2 -2 80 -19 172 -37 l170 -34 309 154 c171
84 316 159 323 165 10 8 13 58 13 209 0 217 3 206 -60 185z"/>
<path d="M4057 1543 c-9 -21 -28 -69 -42 -107 -24 -64 -52 -125 -62 -136 -3
-3 -62 54 -132 127 l-127 132 13 -127 c7 -70 15 -215 19 -322 6 -188 9 -206
75 -530 l68 -335 -1 260 c0 143 -3 312 -6 376 -5 74 -3 120 3 125 6 5 51 44
100 86 50 42 109 94 133 115 l44 38 -28 160 c-15 88 -30 163 -34 168 -3 4 -14
-10 -23 -30z"/>
<path d="M4513 1407 c-49 -72 -107 -163 -128 -202 -63 -117 -93 -175 -90 -175
3 0 130 67 240 126 l60 33 6 173 c4 95 5 174 4 175 -1 2 -42 -57 -92 -130z"/>
<path d="M4141 1197 c-11 -37 -42 -147 -45 -162 -2 -5 -10 -35 -19 -65 -31
-101 -176 -655 -172 -658 1 -2 67 120 145 270 79 150 160 306 182 346 l38 73
-59 114 -60 114 -10 -32z"/>
</g>
</svg>
