<svg width="337" height="57" viewBox="0 0 337 57" fill="none" xmlns="http://www.w3.org/2000/svg">
<path d="M38.948 11.6H51.8C54.936 11.6 57.722 12.216 60.158 13.448C62.594 14.652 64.484 16.374 65.828 18.614C67.172 20.826 67.844 23.388 67.844 26.3C67.844 29.212 67.172 31.788 65.828 34.028C64.484 36.24 62.594 37.962 60.158 39.194C57.722 40.398 54.936 41 51.8 41H38.948V11.6ZM51.548 36.38C53.704 36.38 55.594 35.974 57.218 35.162C58.87 34.322 60.13 33.146 60.998 31.634C61.894 30.094 62.342 28.316 62.342 26.3C62.342 24.284 61.894 22.52 60.998 21.008C60.13 19.468 58.87 18.292 57.218 17.48C55.594 16.64 53.704 16.22 51.548 16.22H44.408V36.38H51.548ZM94.2272 29.912C94.2272 30.276 94.1992 30.794 94.1432 31.466H76.5452C76.8532 33.118 77.6512 34.434 78.9392 35.414C80.2552 36.366 81.8792 36.842 83.8112 36.842C86.2752 36.842 88.3052 36.03 89.9012 34.406L92.7152 37.64C91.7072 38.844 90.4332 39.754 88.8932 40.37C87.3532 40.986 85.6172 41.294 83.6852 41.294C81.2212 41.294 79.0512 40.804 77.1752 39.824C75.2992 38.844 73.8432 37.486 72.8072 35.75C71.7992 33.986 71.2952 31.998 71.2952 29.786C71.2952 27.602 71.7852 25.642 72.7652 23.906C73.7732 22.142 75.1592 20.77 76.9232 19.79C78.6872 18.81 80.6752 18.32 82.8872 18.32C85.0712 18.32 87.0172 18.81 88.7252 19.79C90.4612 20.742 91.8052 22.1 92.7572 23.864C93.7372 25.6 94.2272 27.616 94.2272 29.912ZM82.8872 22.52C81.2072 22.52 79.7792 23.024 78.6032 24.032C77.4552 25.012 76.7552 26.328 76.5032 27.98H89.2292C89.0052 26.356 88.3192 25.04 87.1712 24.032C86.0232 23.024 84.5952 22.52 82.8872 22.52ZM106.2 41.294C104.38 41.294 102.602 41.056 100.866 40.58C99.1302 40.104 97.7442 39.502 96.7082 38.774L98.7242 34.784C99.7322 35.456 100.936 36.002 102.336 36.422C103.764 36.814 105.164 37.01 106.536 37.01C109.672 37.01 111.24 36.184 111.24 34.532C111.24 33.748 110.834 33.202 110.022 32.894C109.238 32.586 107.964 32.292 106.2 32.012C104.352 31.732 102.84 31.41 101.664 31.046C100.516 30.682 99.5082 30.052 98.6402 29.156C97.8002 28.232 97.3802 26.958 97.3802 25.334C97.3802 23.206 98.2622 21.512 100.026 20.252C101.818 18.964 104.226 18.32 107.25 18.32C108.79 18.32 110.33 18.502 111.87 18.866C113.41 19.202 114.67 19.664 115.65 20.252L113.634 24.242C111.73 23.122 109.588 22.562 107.208 22.562C105.668 22.562 104.492 22.8 103.68 23.276C102.896 23.724 102.504 24.326 102.504 25.082C102.504 25.922 102.924 26.524 103.764 26.888C104.632 27.224 105.962 27.546 107.754 27.854C109.546 28.134 111.016 28.456 112.164 28.82C113.312 29.184 114.292 29.8 115.104 30.668C115.944 31.536 116.364 32.768 116.364 34.364C116.364 36.464 115.454 38.144 113.634 39.404C111.814 40.664 109.336 41.294 106.2 41.294ZM131.175 41.294C128.851 41.294 126.765 40.804 124.917 39.824C123.069 38.844 121.627 37.486 120.591 35.75C119.555 33.986 119.037 31.998 119.037 29.786C119.037 27.574 119.555 25.6 120.591 23.864C121.627 22.128 123.055 20.77 124.875 19.79C126.723 18.81 128.823 18.32 131.175 18.32C133.387 18.32 135.319 18.768 136.971 19.664C138.651 20.56 139.911 21.848 140.751 23.528L136.719 25.88C136.075 24.844 135.263 24.074 134.283 23.57C133.331 23.038 132.281 22.772 131.133 22.772C129.173 22.772 127.549 23.416 126.261 24.704C124.973 25.964 124.329 27.658 124.329 29.786C124.329 31.914 124.959 33.622 126.219 34.91C127.507 36.17 129.145 36.8 131.133 36.8C132.281 36.8 133.331 36.548 134.283 36.044C135.263 35.512 136.075 34.728 136.719 33.692L140.751 36.044C139.883 37.724 138.609 39.026 136.929 39.95C135.277 40.846 133.359 41.294 131.175 41.294ZM150.288 21.848C151.8 19.496 154.46 18.32 158.268 18.32V23.318C157.82 23.234 157.414 23.192 157.05 23.192C155.006 23.192 153.41 23.794 152.262 24.998C151.114 26.174 150.54 27.882 150.54 30.122V41H145.29V18.572H150.288V21.848ZM162.721 18.572H167.971V41H162.721V18.572ZM165.367 14.876C164.415 14.876 163.617 14.582 162.973 13.994C162.329 13.378 162.007 12.622 162.007 11.726C162.007 10.83 162.329 10.088 162.973 9.5C163.617 8.884 164.415 8.576 165.367 8.576C166.319 8.576 167.117 8.87 167.761 9.458C168.405 10.018 168.727 10.732 168.727 11.6C168.727 12.524 168.405 13.308 167.761 13.952C167.145 14.568 166.347 14.876 165.367 14.876ZM187.294 18.32C189.478 18.32 191.424 18.796 193.132 19.748C194.868 20.7 196.226 22.044 197.206 23.78C198.186 25.516 198.676 27.518 198.676 29.786C198.676 32.054 198.186 34.07 197.206 35.834C196.226 37.57 194.868 38.914 193.132 39.866C191.424 40.818 189.478 41.294 187.294 41.294C184.27 41.294 181.876 40.286 180.112 38.27V49.148H174.862V18.572H179.86V21.512C180.728 20.448 181.792 19.65 183.052 19.118C184.34 18.586 185.754 18.32 187.294 18.32ZM186.706 36.8C188.638 36.8 190.22 36.156 191.452 34.868C192.712 33.58 193.342 31.886 193.342 29.786C193.342 27.686 192.712 25.992 191.452 24.704C190.22 23.416 188.638 22.772 186.706 22.772C185.446 22.772 184.312 23.066 183.304 23.654C182.296 24.214 181.498 25.026 180.91 26.09C180.322 27.154 180.028 28.386 180.028 29.786C180.028 31.186 180.322 32.418 180.91 33.482C181.498 34.546 182.296 35.372 183.304 35.96C184.312 36.52 185.446 36.8 186.706 36.8ZM217.137 39.782C216.521 40.286 215.765 40.664 214.869 40.916C214.001 41.168 213.077 41.294 212.097 41.294C209.633 41.294 207.729 40.65 206.385 39.362C205.041 38.074 204.369 36.198 204.369 33.734V22.94H200.673V18.74H204.369V13.616H209.619V18.74H215.625V22.94H209.619V33.608C209.619 34.7 209.885 35.54 210.417 36.128C210.949 36.688 211.719 36.968 212.727 36.968C213.903 36.968 214.883 36.66 215.667 36.044L217.137 39.782ZM221.456 18.572H226.706V41H221.456V18.572ZM224.102 14.876C223.15 14.876 222.352 14.582 221.708 13.994C221.064 13.378 220.742 12.622 220.742 11.726C220.742 10.83 221.064 10.088 221.708 9.5C222.352 8.884 223.15 8.576 224.102 8.576C225.054 8.576 225.852 8.87 226.496 9.458C227.14 10.018 227.462 10.732 227.462 11.6C227.462 12.524 227.14 13.308 226.496 13.952C225.88 14.568 225.082 14.876 224.102 14.876ZM243.676 41.294C241.408 41.294 239.364 40.804 237.544 39.824C235.724 38.844 234.296 37.486 233.26 35.75C232.252 33.986 231.748 31.998 231.748 29.786C231.748 27.574 232.252 25.6 233.26 23.864C234.296 22.128 235.724 20.77 237.544 19.79C239.364 18.81 241.408 18.32 243.676 18.32C245.972 18.32 248.03 18.81 249.85 19.79C251.67 20.77 253.084 22.128 254.092 23.864C255.128 25.6 255.646 27.574 255.646 29.786C255.646 31.998 255.128 33.986 254.092 35.75C253.084 37.486 251.67 38.844 249.85 39.824C248.03 40.804 245.972 41.294 243.676 41.294ZM243.676 36.8C245.608 36.8 247.204 36.156 248.464 34.868C249.724 33.58 250.354 31.886 250.354 29.786C250.354 27.686 249.724 25.992 248.464 24.704C247.204 23.416 245.608 22.772 243.676 22.772C241.744 22.772 240.148 23.416 238.888 24.704C237.656 25.992 237.04 27.686 237.04 29.786C237.04 31.886 237.656 33.58 238.888 34.868C240.148 36.156 241.744 36.8 243.676 36.8ZM273.393 18.32C276.221 18.32 278.489 19.146 280.197 20.798C281.905 22.45 282.759 24.9 282.759 28.148V41H277.509V28.82C277.509 26.86 277.047 25.39 276.123 24.41C275.199 23.402 273.883 22.898 272.175 22.898C270.243 22.898 268.717 23.486 267.597 24.662C266.477 25.81 265.917 27.476 265.917 29.66V41H260.667V18.572H265.665V21.47C266.533 20.434 267.625 19.65 268.941 19.118C270.257 18.586 271.741 18.32 273.393 18.32Z" fill="#193566"/>
<line x1="336.25" y1="55.75" x2="1.75" y2="55.75" stroke="url(#paint0_linear_8_258)" stroke-opacity="0.3" stroke-width="1.5" stroke-linecap="square"/>
<path d="M15.3938 14L2 27.3938L15.3938 40.7876" stroke="#193566" stroke-width="3" stroke-linecap="round" stroke-linejoin="round"/>
<defs>
<linearGradient id="paint0_linear_8_258" x1="1" y1="55" x2="326.5" y2="55" gradientUnits="userSpaceOnUse">
<stop stop-color="#8A9BBD"/>
<stop offset="1" stop-color="#8A9BBD"/>
</linearGradient>
</defs>
</svg>
