<svg width="14" height="14" viewBox="0 0 14 14" fill="none" xmlns="http://www.w3.org/2000/svg">
<path d="M11.0763 1.17371L12.8263 2.92371L11.4922 4.25837L9.74221 2.50837L11.0763 1.17371ZM4.66663 9.33337H6.41663L10.6674 5.08262L8.91738 3.33262L4.66663 7.58337V9.33337Z" fill="#193566"/>
<path d="M11.0833 11.0833H4.75883C4.74367 11.0833 4.72792 11.0892 4.71275 11.0892C4.6935 11.0892 4.67425 11.0839 4.65442 11.0833H2.91667V2.91667H6.91075L8.07742 1.75H2.91667C2.27325 1.75 1.75 2.27267 1.75 2.91667V11.0833C1.75 11.7273 2.27325 12.25 2.91667 12.25H11.0833C11.3928 12.25 11.6895 12.1271 11.9083 11.9083C12.1271 11.6895 12.25 11.3928 12.25 11.0833V6.027L11.0833 7.19367V11.0833Z" fill="#193566"/>
</svg>
