<svg width="14" height="10" viewBox="0 0 14 10" fill="none" xmlns="http://www.w3.org/2000/svg">
<path d="M7.1945 1.79167C9.40533 1.79167 11.377 3.03417 12.3395 5C11.377 6.96583 9.41116 8.20833 7.1945 8.20833C4.97783 8.20833 3.012 6.96583 2.0495 5C3.012 3.03417 4.98366 1.79167 7.1945 1.79167ZM7.1945 0.625C4.27783 0.625 1.787 2.43917 0.777832 5C1.787 7.56083 4.27783 9.375 7.1945 9.375C10.1112 9.375 12.602 7.56083 13.6112 5C12.602 2.43917 10.1112 0.625 7.1945 0.625ZM7.1945 3.54167C7.9995 3.54167 8.65283 4.195 8.65283 5C8.65283 5.805 7.9995 6.45833 7.1945 6.45833C6.3895 6.45833 5.73616 5.805 5.73616 5C5.73616 4.195 6.3895 3.54167 7.1945 3.54167ZM7.1945 2.375C5.74783 2.375 4.5695 3.55333 4.5695 5C4.5695 6.44667 5.74783 7.625 7.1945 7.625C8.64116 7.625 9.8195 6.44667 9.8195 5C9.8195 3.55333 8.64116 2.375 7.1945 2.375Z" fill="#97A7C3"/>
</svg>
