<svg width="235" height="50" viewBox="0 0 235 50" fill="none" xmlns="http://www.w3.org/2000/svg">
<path d="M4.382 27.168C3.60733 27.168 2.856 27.0653 2.128 26.86C1.40933 26.6453 0.830667 26.37 0.392 26.034L1.162 24.326C1.582 24.634 2.08133 24.8813 2.66 25.068C3.23867 25.2547 3.81733 25.348 4.396 25.348C5.04 25.348 5.516 25.2547 5.824 25.068C6.132 24.872 6.286 24.6153 6.286 24.298C6.286 24.0647 6.19267 23.8733 6.006 23.724C5.82867 23.5653 5.59533 23.4393 5.306 23.346C5.026 23.2527 4.64333 23.15 4.158 23.038C3.41133 22.8607 2.8 22.6833 2.324 22.506C1.848 22.3287 1.43733 22.044 1.092 21.652C0.756 21.26 0.588 20.7373 0.588 20.084C0.588 19.5147 0.742 19.0013 1.05 18.544C1.358 18.0773 1.82 17.7087 2.436 17.438C3.06133 17.1673 3.822 17.032 4.718 17.032C5.34333 17.032 5.95467 17.1067 6.552 17.256C7.14933 17.4053 7.672 17.62 8.12 17.9L7.42 19.622C6.51467 19.1087 5.60933 18.852 4.704 18.852C4.06933 18.852 3.598 18.9547 3.29 19.16C2.99133 19.3653 2.842 19.636 2.842 19.972C2.842 20.308 3.01467 20.56 3.36 20.728C3.71467 20.8867 4.25133 21.0453 4.97 21.204C5.71667 21.3813 6.328 21.5587 6.804 21.736C7.28 21.9133 7.686 22.1933 8.022 22.576C8.36733 22.9587 8.54 23.4767 8.54 24.13C8.54 24.69 8.38133 25.2033 8.064 25.67C7.756 26.1273 7.28933 26.4913 6.664 26.762C6.03867 27.0327 5.278 27.168 4.382 27.168ZM17.3137 23.262C17.3137 23.29 17.2997 23.486 17.2717 23.85H11.5737C11.6764 24.3167 11.9191 24.6853 12.3017 24.956C12.6844 25.2267 13.1604 25.362 13.7297 25.362C14.1217 25.362 14.4671 25.306 14.7657 25.194C15.0737 25.0727 15.3584 24.886 15.6197 24.634L16.7817 25.894C16.0724 26.706 15.0364 27.112 13.6737 27.112C12.8244 27.112 12.0731 26.9487 11.4197 26.622C10.7664 26.286 10.2624 25.824 9.90773 25.236C9.55307 24.648 9.37573 23.9807 9.37573 23.234C9.37573 22.4967 9.5484 21.834 9.89373 21.246C10.2484 20.6487 10.7291 20.1867 11.3357 19.86C11.9517 19.524 12.6377 19.356 13.3937 19.356C14.1311 19.356 14.7984 19.5147 15.3957 19.832C15.9931 20.1493 16.4597 20.6067 16.7957 21.204C17.1411 21.792 17.3137 22.478 17.3137 23.262ZM13.4077 21.008C12.9131 21.008 12.4977 21.148 12.1617 21.428C11.8257 21.708 11.6204 22.0907 11.5457 22.576H15.2557C15.1811 22.1 14.9757 21.722 14.6397 21.442C14.3037 21.1527 13.8931 21.008 13.4077 21.008ZM18.7678 16.612H20.9518V27H18.7678V16.612ZM30.3567 23.262C30.3567 23.29 30.3427 23.486 30.3147 23.85H24.6167C24.7194 24.3167 24.962 24.6853 25.3447 24.956C25.7274 25.2267 26.2034 25.362 26.7727 25.362C27.1647 25.362 27.51 25.306 27.8087 25.194C28.1167 25.0727 28.4014 24.886 28.6627 24.634L29.8247 25.894C29.1154 26.706 28.0794 27.112 26.7167 27.112C25.8674 27.112 25.116 26.9487 24.4627 26.622C23.8094 26.286 23.3054 25.824 22.9507 25.236C22.596 24.648 22.4187 23.9807 22.4187 23.234C22.4187 22.4967 22.5914 21.834 22.9367 21.246C23.2914 20.6487 23.772 20.1867 24.3787 19.86C24.9947 19.524 25.6807 19.356 26.4367 19.356C27.174 19.356 27.8414 19.5147 28.4387 19.832C29.036 20.1493 29.5027 20.6067 29.8387 21.204C30.184 21.792 30.3567 22.478 30.3567 23.262ZM26.4507 21.008C25.956 21.008 25.5407 21.148 25.2047 21.428C24.8687 21.708 24.6634 22.0907 24.5887 22.576H28.2987C28.224 22.1 28.0187 21.722 27.6827 21.442C27.3467 21.1527 26.936 21.008 26.4507 21.008ZM35.4507 27.112C34.6481 27.112 33.9247 26.9487 33.2807 26.622C32.6461 26.286 32.1467 25.824 31.7827 25.236C31.4281 24.648 31.2507 23.9807 31.2507 23.234C31.2507 22.4873 31.4281 21.82 31.7827 21.232C32.1467 20.644 32.6461 20.1867 33.2807 19.86C33.9247 19.524 34.6481 19.356 35.4507 19.356C36.2441 19.356 36.9347 19.524 37.5227 19.86C38.1201 20.1867 38.5541 20.658 38.8247 21.274L37.1307 22.184C36.7387 21.4933 36.1741 21.148 35.4367 21.148C34.8674 21.148 34.3961 21.3347 34.0227 21.708C33.6494 22.0813 33.4627 22.59 33.4627 23.234C33.4627 23.878 33.6494 24.3867 34.0227 24.76C34.3961 25.1333 34.8674 25.32 35.4367 25.32C36.1834 25.32 36.7481 24.9747 37.1307 24.284L38.8247 25.208C38.5541 25.8053 38.1201 26.272 37.5227 26.608C36.9347 26.944 36.2441 27.112 35.4507 27.112ZM45.0496 26.636C44.8349 26.7947 44.5689 26.916 44.2516 27C43.9436 27.0747 43.6169 27.112 43.2716 27.112C42.3756 27.112 41.6803 26.8833 41.1856 26.426C40.7003 25.9687 40.4576 25.2967 40.4576 24.41V21.316H39.2956V19.636H40.4576V17.802H42.6416V19.636H44.5176V21.316H42.6416V24.382C42.6416 24.6993 42.7209 24.9467 42.8796 25.124C43.0476 25.292 43.2809 25.376 43.5796 25.376C43.9249 25.376 44.2189 25.2827 44.4616 25.096L45.0496 26.636ZM52.6344 19.636H54.5664V21.316H52.6904V27H50.5064V21.316H49.3444V19.636H50.5064V19.3C50.5064 18.4413 50.7584 17.76 51.2624 17.256C51.7758 16.752 52.4944 16.5 53.4184 16.5C53.7451 16.5 54.0531 16.5373 54.3424 16.612C54.6411 16.6773 54.8884 16.7753 55.0844 16.906L54.5104 18.488C54.2584 18.3107 53.9644 18.222 53.6284 18.222C52.9658 18.222 52.6344 18.586 52.6344 19.314V19.636ZM56.7784 19.468H58.9624V27H56.7784V19.468ZM57.8704 18.418C57.4691 18.418 57.1424 18.3013 56.8904 18.068C56.6384 17.8347 56.5124 17.5453 56.5124 17.2C56.5124 16.8547 56.6384 16.5653 56.8904 16.332C57.1424 16.0987 57.4691 15.982 57.8704 15.982C58.2718 15.982 58.5984 16.094 58.8504 16.318C59.1024 16.542 59.2284 16.822 59.2284 17.158C59.2284 17.522 59.1024 17.8253 58.8504 18.068C58.5984 18.3013 58.2718 18.418 57.8704 18.418ZM60.9865 16.612H63.1705V27H60.9865V16.612ZM72.5755 23.262C72.5755 23.29 72.5615 23.486 72.5335 23.85H66.8355C66.9381 24.3167 67.1808 24.6853 67.5635 24.956C67.9461 25.2267 68.4221 25.362 68.9915 25.362C69.3835 25.362 69.7288 25.306 70.0275 25.194C70.3355 25.0727 70.6201 24.886 70.8815 24.634L72.0435 25.894C71.3341 26.706 70.2981 27.112 68.9355 27.112C68.0861 27.112 67.3348 26.9487 66.6815 26.622C66.0281 26.286 65.5241 25.824 65.1695 25.236C64.8148 24.648 64.6375 23.9807 64.6375 23.234C64.6375 22.4967 64.8101 21.834 65.1555 21.246C65.5101 20.6487 65.9908 20.1867 66.5975 19.86C67.2135 19.524 67.8995 19.356 68.6555 19.356C69.3928 19.356 70.0601 19.5147 70.6575 19.832C71.2548 20.1493 71.7215 20.6067 72.0575 21.204C72.4028 21.792 72.5755 22.478 72.5755 23.262ZM68.6695 21.008C68.1748 21.008 67.7595 21.148 67.4235 21.428C67.0875 21.708 66.8821 22.0907 66.8075 22.576H70.5175C70.4428 22.1 70.2375 21.722 69.9015 21.442C69.5655 21.1527 69.1548 21.008 68.6695 21.008ZM80.3883 19.636H82.3203V21.316H80.4443V27H78.2603V21.316H77.0983V19.636H78.2603V19.3C78.2603 18.4413 78.5123 17.76 79.0163 17.256C79.5297 16.752 80.2483 16.5 81.1723 16.5C81.499 16.5 81.807 16.5373 82.0963 16.612C82.395 16.6773 82.6423 16.7753 82.8383 16.906L82.2643 18.488C82.0123 18.3107 81.7183 18.222 81.3823 18.222C80.7197 18.222 80.3883 18.586 80.3883 19.314V19.636ZM86.8967 27.112C86.1034 27.112 85.3894 26.9487 84.7547 26.622C84.1294 26.286 83.6394 25.824 83.2847 25.236C82.93 24.648 82.7527 23.9807 82.7527 23.234C82.7527 22.4873 82.93 21.82 83.2847 21.232C83.6394 20.644 84.1294 20.1867 84.7547 19.86C85.3894 19.524 86.1034 19.356 86.8967 19.356C87.69 19.356 88.3994 19.524 89.0247 19.86C89.65 20.1867 90.14 20.644 90.4947 21.232C90.8494 21.82 91.0267 22.4873 91.0267 23.234C91.0267 23.9807 90.8494 24.648 90.4947 25.236C90.14 25.824 89.65 26.286 89.0247 26.622C88.3994 26.9487 87.69 27.112 86.8967 27.112ZM86.8967 25.32C87.4567 25.32 87.914 25.1333 88.2687 24.76C88.6327 24.3773 88.8147 23.8687 88.8147 23.234C88.8147 22.5993 88.6327 22.0953 88.2687 21.722C87.914 21.3393 87.4567 21.148 86.8967 21.148C86.3367 21.148 85.8747 21.3393 85.5107 21.722C85.1467 22.0953 84.9647 22.5993 84.9647 23.234C84.9647 23.8687 85.1467 24.3773 85.5107 24.76C85.8747 25.1333 86.3367 25.32 86.8967 25.32ZM94.5725 20.462C94.8338 20.098 95.1838 19.8227 95.6225 19.636C96.0705 19.4493 96.5838 19.356 97.1625 19.356V21.372C96.9198 21.3533 96.7565 21.344 96.6725 21.344C96.0472 21.344 95.5572 21.5213 95.2025 21.876C94.8478 22.2213 94.6705 22.744 94.6705 23.444V27H92.4865V19.468H94.5725V20.462ZM110.069 19.468V27H107.997V26.104C107.707 26.4307 107.362 26.6827 106.961 26.86C106.559 27.028 106.125 27.112 105.659 27.112C104.669 27.112 103.885 26.8273 103.307 26.258C102.728 25.6887 102.439 24.844 102.439 23.724V19.468H104.623V23.402C104.623 24.6153 105.131 25.222 106.149 25.222C106.671 25.222 107.091 25.054 107.409 24.718C107.726 24.3727 107.885 23.864 107.885 23.192V19.468H110.069ZM116.544 19.356C117.244 19.356 117.879 19.5193 118.448 19.846C119.027 20.1633 119.479 20.616 119.806 21.204C120.133 21.7827 120.296 22.4593 120.296 23.234C120.296 24.0087 120.133 24.69 119.806 25.278C119.479 25.8567 119.027 26.3093 118.448 26.636C117.879 26.9533 117.244 27.112 116.544 27.112C115.583 27.112 114.827 26.8087 114.276 26.202V29.716H112.092V19.468H114.178V20.336C114.719 19.6827 115.508 19.356 116.544 19.356ZM116.166 25.32C116.726 25.32 117.183 25.1333 117.538 24.76C117.902 24.3773 118.084 23.8687 118.084 23.234C118.084 22.5993 117.902 22.0953 117.538 21.722C117.183 21.3393 116.726 21.148 116.166 21.148C115.606 21.148 115.144 21.3393 114.78 21.722C114.425 22.0953 114.248 22.5993 114.248 23.234C114.248 23.8687 114.425 24.3773 114.78 24.76C115.144 25.1333 115.606 25.32 116.166 25.32ZM121.758 16.612H123.942V27H121.758V16.612ZM129.553 27.112C128.76 27.112 128.046 26.9487 127.411 26.622C126.786 26.286 126.296 25.824 125.941 25.236C125.586 24.648 125.409 23.9807 125.409 23.234C125.409 22.4873 125.586 21.82 125.941 21.232C126.296 20.644 126.786 20.1867 127.411 19.86C128.046 19.524 128.76 19.356 129.553 19.356C130.346 19.356 131.056 19.524 131.681 19.86C132.306 20.1867 132.796 20.644 133.151 21.232C133.506 21.82 133.683 22.4873 133.683 23.234C133.683 23.9807 133.506 24.648 133.151 25.236C132.796 25.824 132.306 26.286 131.681 26.622C131.056 26.9487 130.346 27.112 129.553 27.112ZM129.553 25.32C130.113 25.32 130.57 25.1333 130.925 24.76C131.289 24.3773 131.471 23.8687 131.471 23.234C131.471 22.5993 131.289 22.0953 130.925 21.722C130.57 21.3393 130.113 21.148 129.553 21.148C128.993 21.148 128.531 21.3393 128.167 21.722C127.803 22.0953 127.621 22.5993 127.621 23.234C127.621 23.8687 127.803 24.3773 128.167 24.76C128.531 25.1333 128.993 25.32 129.553 25.32ZM138.058 19.356C139.224 19.356 140.12 19.636 140.746 20.196C141.371 20.7467 141.684 21.582 141.684 22.702V27H139.64V26.062C139.229 26.762 138.464 27.112 137.344 27.112C136.765 27.112 136.261 27.014 135.832 26.818C135.412 26.622 135.09 26.3513 134.866 26.006C134.642 25.6607 134.53 25.2687 134.53 24.83C134.53 24.13 134.791 23.5793 135.314 23.178C135.846 22.7767 136.662 22.576 137.764 22.576H139.5C139.5 22.1 139.355 21.736 139.066 21.484C138.776 21.2227 138.342 21.092 137.764 21.092C137.362 21.092 136.966 21.1573 136.574 21.288C136.191 21.4093 135.864 21.5773 135.594 21.792L134.81 20.266C135.22 19.9767 135.71 19.7527 136.28 19.594C136.858 19.4353 137.451 19.356 138.058 19.356ZM137.89 25.642C138.263 25.642 138.594 25.558 138.884 25.39C139.173 25.2127 139.378 24.956 139.5 24.62V23.85H138.002C137.106 23.85 136.658 24.144 136.658 24.732C136.658 25.012 136.765 25.236 136.98 25.404C137.204 25.5627 137.507 25.642 137.89 25.642ZM151.414 16.612V27H149.328V26.132C148.787 26.7853 148.003 27.112 146.976 27.112C146.267 27.112 145.623 26.9533 145.044 26.636C144.475 26.3187 144.027 25.866 143.7 25.278C143.374 24.69 143.21 24.0087 143.21 23.234C143.21 22.4593 143.374 21.778 143.7 21.19C144.027 20.602 144.475 20.1493 145.044 19.832C145.623 19.5147 146.267 19.356 146.976 19.356C147.938 19.356 148.689 19.6593 149.23 20.266V16.612H151.414ZM147.354 25.32C147.905 25.32 148.362 25.1333 148.726 24.76C149.09 24.3773 149.272 23.8687 149.272 23.234C149.272 22.5993 149.09 22.0953 148.726 21.722C148.362 21.3393 147.905 21.148 147.354 21.148C146.794 21.148 146.332 21.3393 145.968 21.722C145.604 22.0953 145.422 22.5993 145.422 23.234C145.422 23.8687 145.604 24.3773 145.968 24.76C146.332 25.1333 146.794 25.32 147.354 25.32Z" fill="#193566"/>
<path d="M1.1731 41.552C1.0611 41.2587 0.970429 40.9173 0.901096 40.528C0.831762 40.1387 0.797096 39.752 0.797096 39.368C0.797096 38.3973 0.957096 37.4373 1.2771 36.488C1.60243 35.5387 2.04243 34.7307 2.5971 34.064H3.3811C2.8051 34.8053 2.35176 35.648 2.0211 36.592C1.69576 37.5307 1.5331 38.4693 1.5331 39.408C1.5331 40.112 1.64776 40.8267 1.8771 41.552H1.1731ZM6.15285 34.4H8.34485C8.90485 34.4 9.38485 34.496 9.78485 34.688C10.1902 34.8747 10.4968 35.1413 10.7048 35.488C10.9182 35.8293 11.0248 36.232 11.0248 36.696C11.0248 37.3467 10.8782 37.9227 10.5848 38.424C10.2968 38.9253 9.88885 39.3147 9.36085 39.592C8.83818 39.864 8.23018 40 7.53685 40H5.03285L6.15285 34.4ZM7.56085 39.304C8.09951 39.304 8.56885 39.1947 8.96885 38.976C9.36885 38.7573 9.67551 38.456 9.88885 38.072C10.1075 37.6827 10.2168 37.24 10.2168 36.744C10.2168 36.2267 10.0515 35.824 9.72085 35.536C9.39018 35.2427 8.90485 35.096 8.26485 35.096H6.80885L5.96885 39.304H7.56085ZM12.7942 36.392C12.9809 36.1573 13.2102 35.9867 13.4822 35.88C13.7542 35.7733 14.0849 35.72 14.4742 35.72L14.3302 36.464C14.2822 36.4587 14.2156 36.456 14.1302 36.456C13.2502 36.456 12.7169 36.9307 12.5302 37.88L12.1062 40H11.3382L12.1782 35.76H12.9142L12.7942 36.392ZM16.3097 40.048C15.9097 40.048 15.5604 39.9733 15.2617 39.824C14.9631 39.6693 14.7311 39.4533 14.5657 39.176C14.4004 38.8987 14.3177 38.5787 14.3177 38.216C14.3177 37.7413 14.4244 37.3147 14.6377 36.936C14.8511 36.5573 15.1471 36.2613 15.5257 36.048C15.9044 35.8293 16.3311 35.72 16.8057 35.72C17.2057 35.72 17.5551 35.7947 17.8537 35.944C18.1524 36.0933 18.3817 36.3067 18.5417 36.584C18.7071 36.856 18.7897 37.176 18.7897 37.544C18.7897 38.0187 18.6831 38.448 18.4697 38.832C18.2564 39.2107 17.9604 39.5093 17.5817 39.728C17.2084 39.9413 16.7844 40.048 16.3097 40.048ZM16.3577 39.376C16.6724 39.376 16.9551 39.3013 17.2057 39.152C17.4617 38.9973 17.6591 38.784 17.7977 38.512C17.9417 38.24 18.0137 37.9307 18.0137 37.584C18.0137 37.2053 17.9044 36.912 17.6857 36.704C17.4671 36.496 17.1551 36.392 16.7497 36.392C16.4351 36.392 16.1524 36.4693 15.9017 36.624C15.6511 36.7733 15.4537 36.984 15.3097 37.256C15.1657 37.528 15.0937 37.8373 15.0937 38.184C15.0937 38.5573 15.2031 38.8507 15.4217 39.064C15.6457 39.272 15.9577 39.376 16.3577 39.376ZM22.1718 35.72C22.5345 35.72 22.8572 35.7947 23.1398 35.944C23.4225 36.088 23.6438 36.2987 23.8038 36.576C23.9638 36.848 24.0438 37.1707 24.0438 37.544C24.0438 38.024 23.9398 38.4533 23.7318 38.832C23.5238 39.2107 23.2358 39.5093 22.8678 39.728C22.5052 39.9413 22.0972 40.048 21.6438 40.048C21.2812 40.048 20.9692 39.984 20.7078 39.856C20.4465 39.7227 20.2465 39.5307 20.1078 39.28L19.6598 41.552H18.8918L20.0438 35.76H20.7798L20.6758 36.288C21.0705 35.9093 21.5692 35.72 22.1718 35.72ZM21.6118 39.376C21.9265 39.376 22.2092 39.3013 22.4598 39.152C22.7105 38.9973 22.9078 38.784 23.0518 38.512C23.1958 38.24 23.2678 37.9307 23.2678 37.584C23.2678 37.2053 23.1585 36.912 22.9398 36.704C22.7212 36.496 22.4092 36.392 22.0038 36.392C21.6892 36.392 21.4038 36.4693 21.1478 36.624C20.8972 36.7733 20.6998 36.984 20.5558 37.256C20.4172 37.528 20.3478 37.8373 20.3478 38.184C20.3478 38.5573 20.4572 38.8507 20.6758 39.064C20.8998 39.272 21.2118 39.376 21.6118 39.376ZM29.0134 34.648C28.7841 34.648 28.6027 34.712 28.4694 34.84C28.3361 34.9627 28.2401 35.1573 28.1814 35.424L28.1094 35.76H29.3414L29.2134 36.392H28.0054L27.2774 40H26.5094L27.2374 36.392H26.5094L26.6294 35.76H27.3654L27.4454 35.36C27.5307 34.928 27.7041 34.5973 27.9654 34.368C28.2321 34.1333 28.5814 34.016 29.0134 34.016C29.1894 34.016 29.3547 34.04 29.5094 34.088C29.6694 34.1307 29.8001 34.1947 29.9014 34.28L29.5814 34.848C29.4321 34.7147 29.2427 34.648 29.0134 34.648ZM30.7094 35.76H31.4774L30.6374 40H29.8694L30.7094 35.76ZM31.3174 34.944C31.1787 34.944 31.0641 34.8987 30.9734 34.808C30.8827 34.7173 30.8374 34.608 30.8374 34.48C30.8374 34.3307 30.8881 34.2053 30.9894 34.104C31.0961 33.9973 31.2294 33.944 31.3894 33.944C31.5281 33.944 31.6427 33.9893 31.7334 34.08C31.8294 34.1653 31.8774 34.2693 31.8774 34.392C31.8774 34.5573 31.8241 34.6907 31.7174 34.792C31.6161 34.8933 31.4827 34.944 31.3174 34.944ZM33.0847 34.064H33.8527L32.6687 40H31.9007L33.0847 34.064ZM34.6791 38.12V38.168C34.6791 38.5627 34.7911 38.864 35.0151 39.072C35.2391 39.2747 35.5751 39.376 36.0231 39.376C36.2844 39.376 36.5298 39.3333 36.7591 39.248C36.9884 39.1573 37.1804 39.0373 37.3351 38.888L37.6631 39.44C37.4551 39.632 37.2018 39.7813 36.9031 39.888C36.6044 39.9947 36.2898 40.048 35.9591 40.048C35.5431 40.048 35.1831 39.9733 34.8791 39.824C34.5751 39.6747 34.3404 39.4613 34.1751 39.184C34.0098 38.9067 33.9271 38.5813 33.9271 38.208C33.9271 37.7333 34.0284 37.3067 34.2311 36.928C34.4391 36.5493 34.7244 36.2533 35.0871 36.04C35.4551 35.8267 35.8658 35.72 36.3191 35.72C36.8951 35.72 37.3538 35.8853 37.6951 36.216C38.0418 36.5413 38.2151 36.9867 38.2151 37.552C38.2151 37.7227 38.1964 37.912 38.1591 38.12H34.6791ZM36.2871 36.36C35.9084 36.36 35.5831 36.4667 35.3111 36.68C35.0391 36.8933 34.8551 37.1867 34.7591 37.56H37.4951C37.5164 37.1813 37.4151 36.888 37.1911 36.68C36.9724 36.4667 36.6711 36.36 36.2871 36.36ZM39.9617 40.048C39.6097 40.048 39.2737 40.0027 38.9537 39.912C38.6391 39.8213 38.3937 39.704 38.2177 39.56L38.5617 38.952C38.7271 39.0853 38.9404 39.192 39.2017 39.272C39.4684 39.3467 39.7457 39.384 40.0337 39.384C40.3964 39.384 40.6711 39.3307 40.8577 39.224C41.0497 39.112 41.1457 38.9573 41.1457 38.76C41.1457 38.6 41.0684 38.4853 40.9137 38.416C40.7644 38.3467 40.5297 38.2773 40.2097 38.208C39.9111 38.144 39.6657 38.08 39.4737 38.016C39.2871 37.9467 39.1271 37.84 38.9937 37.696C38.8604 37.5467 38.7937 37.3467 38.7937 37.096C38.7937 36.8187 38.8711 36.576 39.0257 36.368C39.1857 36.16 39.4097 36 39.6977 35.888C39.9911 35.776 40.3297 35.72 40.7137 35.72C40.9964 35.72 41.2711 35.7547 41.5377 35.824C41.8044 35.8933 42.0231 35.9867 42.1937 36.104L41.8897 36.712C41.7244 36.6 41.5324 36.5173 41.3137 36.464C41.0951 36.4053 40.8711 36.376 40.6417 36.376C40.2951 36.376 40.0284 36.4347 39.8417 36.552C39.6551 36.664 39.5617 36.816 39.5617 37.008C39.5617 37.1787 39.6391 37.3013 39.7937 37.376C39.9484 37.4453 40.1884 37.5147 40.5137 37.584C40.8071 37.648 41.0471 37.712 41.2337 37.776C41.4204 37.84 41.5777 37.944 41.7057 38.088C41.8391 38.232 41.9057 38.4267 41.9057 38.672C41.9057 39.104 41.7271 39.4427 41.3697 39.688C41.0177 39.928 40.5484 40.048 39.9617 40.048ZM47.39 35.72C47.8753 35.72 48.2513 35.8427 48.518 36.088C48.79 36.3333 48.926 36.68 48.926 37.128C48.926 37.2827 48.91 37.448 48.878 37.624L48.406 40H47.638L48.11 37.624C48.1366 37.48 48.15 37.3627 48.15 37.272C48.15 36.9947 48.0673 36.7813 47.902 36.632C47.7366 36.4827 47.4913 36.408 47.166 36.408C46.75 36.408 46.406 36.5227 46.134 36.752C45.8673 36.976 45.6886 37.312 45.598 37.76L45.15 40H44.382L45.566 34.064H46.334L45.894 36.256C46.2726 35.8987 46.7713 35.72 47.39 35.72ZM50.3947 38.12V38.168C50.3947 38.5627 50.5067 38.864 50.7307 39.072C50.9547 39.2747 51.2907 39.376 51.7387 39.376C52.0001 39.376 52.2454 39.3333 52.4747 39.248C52.7041 39.1573 52.8961 39.0373 53.0507 38.888L53.3787 39.44C53.1707 39.632 52.9174 39.7813 52.6187 39.888C52.3201 39.9947 52.0054 40.048 51.6747 40.048C51.2587 40.048 50.8987 39.9733 50.5947 39.824C50.2907 39.6747 50.0561 39.4613 49.8907 39.184C49.7254 38.9067 49.6427 38.5813 49.6427 38.208C49.6427 37.7333 49.7441 37.3067 49.9467 36.928C50.1547 36.5493 50.4401 36.2533 50.8027 36.04C51.1707 35.8267 51.5814 35.72 52.0347 35.72C52.6107 35.72 53.0694 35.8853 53.4107 36.216C53.7574 36.5413 53.9307 36.9867 53.9307 37.552C53.9307 37.7227 53.9121 37.912 53.8747 38.12H50.3947ZM52.0027 36.36C51.6241 36.36 51.2987 36.4667 51.0267 36.68C50.7547 36.8933 50.5707 37.1867 50.4747 37.56H53.2107C53.2321 37.1813 53.1307 36.888 52.9067 36.68C52.6881 36.4667 52.3867 36.36 52.0027 36.36ZM55.7973 36.392C55.984 36.1573 56.2133 35.9867 56.4853 35.88C56.7573 35.7733 57.088 35.72 57.4773 35.72L57.3333 36.464C57.2853 36.4587 57.2187 36.456 57.1333 36.456C56.2533 36.456 55.72 36.9307 55.5333 37.88L55.1093 40H54.3413L55.1813 35.76H55.9173L55.7973 36.392ZM58.0728 38.12V38.168C58.0728 38.5627 58.1848 38.864 58.4088 39.072C58.6328 39.2747 58.9688 39.376 59.4168 39.376C59.6782 39.376 59.9235 39.3333 60.1528 39.248C60.3822 39.1573 60.5742 39.0373 60.7288 38.888L61.0568 39.44C60.8488 39.632 60.5955 39.7813 60.2968 39.888C59.9982 39.9947 59.6835 40.048 59.3528 40.048C58.9368 40.048 58.5768 39.9733 58.2728 39.824C57.9688 39.6747 57.7342 39.4613 57.5688 39.184C57.4035 38.9067 57.3208 38.5813 57.3208 38.208C57.3208 37.7333 57.4222 37.3067 57.6248 36.928C57.8328 36.5493 58.1182 36.2533 58.4808 36.04C58.8488 35.8267 59.2595 35.72 59.7128 35.72C60.2888 35.72 60.7475 35.8853 61.0888 36.216C61.4355 36.5413 61.6088 36.9867 61.6088 37.552C61.6088 37.7227 61.5902 37.912 61.5528 38.12H58.0728ZM59.6808 36.36C59.3022 36.36 58.9768 36.4667 58.7048 36.68C58.4328 36.8933 58.2488 37.1867 58.1528 37.56H60.8888C60.9102 37.1813 60.8088 36.888 60.5848 36.68C60.3662 36.4667 60.0648 36.36 59.6808 36.36ZM65.9519 40.048C65.5519 40.048 65.2026 39.9733 64.9039 39.824C64.6052 39.6693 64.3732 39.4533 64.2079 39.176C64.0426 38.8987 63.9599 38.5787 63.9599 38.216C63.9599 37.7413 64.0666 37.3147 64.2799 36.936C64.4932 36.5573 64.7892 36.2613 65.1679 36.048C65.5466 35.8293 65.9732 35.72 66.4479 35.72C66.8479 35.72 67.1972 35.7947 67.4959 35.944C67.7946 36.0933 68.0239 36.3067 68.1839 36.584C68.3492 36.856 68.4319 37.176 68.4319 37.544C68.4319 38.0187 68.3252 38.448 68.1119 38.832C67.8986 39.2107 67.6026 39.5093 67.2239 39.728C66.8506 39.9413 66.4266 40.048 65.9519 40.048ZM65.9999 39.376C66.3146 39.376 66.5972 39.3013 66.8479 39.152C67.1039 38.9973 67.3012 38.784 67.4399 38.512C67.5839 38.24 67.6559 37.9307 67.6559 37.584C67.6559 37.2053 67.5466 36.912 67.3279 36.704C67.1092 36.496 66.7972 36.392 66.3919 36.392C66.0772 36.392 65.7946 36.4693 65.5439 36.624C65.2932 36.7733 65.0959 36.984 64.9519 37.256C64.8079 37.528 64.7359 37.8373 64.7359 38.184C64.7359 38.5573 64.8452 38.8507 65.0639 39.064C65.2879 39.272 65.5999 39.376 65.9999 39.376ZM70.302 36.392C70.4887 36.1573 70.718 35.9867 70.99 35.88C71.262 35.7733 71.5927 35.72 71.982 35.72L71.838 36.464C71.79 36.4587 71.7234 36.456 71.638 36.456C70.758 36.456 70.2247 36.9307 70.038 37.88L69.614 40H68.846L69.686 35.76H70.422L70.302 36.392ZM76.7157 40.064C76.1611 40.064 75.6837 39.9653 75.2837 39.768C74.8837 39.5707 74.5771 39.296 74.3637 38.944C74.1504 38.5867 74.0437 38.1733 74.0437 37.704C74.0437 37.08 74.1851 36.512 74.4677 36C74.7504 35.488 75.1504 35.0827 75.6677 34.784C76.1904 34.4853 76.7931 34.336 77.4757 34.336C77.9397 34.336 78.3504 34.4133 78.7077 34.568C79.0651 34.7173 79.3397 34.9307 79.5317 35.208L78.9557 35.704C78.6197 35.2667 78.1077 35.048 77.4197 35.048C76.9024 35.048 76.4491 35.1653 76.0597 35.4C75.6704 35.6347 75.3691 35.952 75.1557 36.352C74.9477 36.7467 74.8437 37.1813 74.8437 37.656C74.8437 38.1733 75.0091 38.5867 75.3397 38.896C75.6757 39.2 76.1531 39.352 76.7717 39.352C77.4597 39.352 78.0251 39.1307 78.4677 38.688L78.9317 39.216C78.6757 39.4933 78.3557 39.704 77.9717 39.848C77.5931 39.992 77.1744 40.064 76.7157 40.064ZM80.641 34.064H81.409L80.225 40H79.457L80.641 34.064ZM82.3313 35.76H83.0993L82.2593 40H81.4913L82.3313 35.76ZM82.9393 34.944C82.8007 34.944 82.686 34.8987 82.5953 34.808C82.5047 34.7173 82.4593 34.608 82.4593 34.48C82.4593 34.3307 82.51 34.2053 82.6113 34.104C82.718 33.9973 82.8513 33.944 83.0113 33.944C83.15 33.944 83.2647 33.9893 83.3553 34.08C83.4513 34.1653 83.4993 34.2693 83.4993 34.392C83.4993 34.5573 83.446 34.6907 83.3393 34.792C83.238 34.8933 83.1047 34.944 82.9393 34.944ZM85.5337 40.048C85.1284 40.048 84.7737 39.9733 84.4697 39.824C84.1657 39.6693 83.9311 39.456 83.7657 39.184C83.6004 38.9067 83.5177 38.584 83.5177 38.216C83.5177 37.7413 83.6244 37.3147 83.8377 36.936C84.0511 36.5573 84.3471 36.2613 84.7257 36.048C85.1044 35.8293 85.5337 35.72 86.0137 35.72C86.8511 35.72 87.4324 36.0267 87.7577 36.64L87.1097 37C86.8857 36.5947 86.5017 36.392 85.9577 36.392C85.6431 36.392 85.3577 36.4693 85.1017 36.624C84.8511 36.7733 84.6537 36.984 84.5097 37.256C84.3657 37.528 84.2937 37.8373 84.2937 38.184C84.2937 38.5573 84.4031 38.8507 84.6217 39.064C84.8457 39.272 85.1604 39.376 85.5657 39.376C85.8217 39.376 86.0591 39.3253 86.2777 39.224C86.5017 39.1227 86.6857 38.9733 86.8297 38.776L87.3897 39.176C87.1924 39.448 86.9284 39.6613 86.5977 39.816C86.2671 39.9707 85.9124 40.048 85.5337 40.048ZM90.4893 37.544L92.0013 40H91.1133L89.8893 38L88.8493 38.808L88.6093 40H87.8413L89.0253 34.064H89.7933L89.0413 37.84L91.6733 35.76H92.7533L90.4893 37.544ZM95.5773 38.648C95.5613 38.728 95.5533 38.8027 95.5533 38.872C95.5533 39.0427 95.5987 39.1733 95.6893 39.264C95.7853 39.3547 95.9267 39.4 96.1133 39.4C96.3373 39.4 96.54 39.3333 96.7213 39.2L96.8813 39.784C96.6253 39.96 96.2973 40.048 95.8973 40.048C95.5613 40.048 95.2893 39.9547 95.0813 39.768C94.8787 39.576 94.7773 39.3147 94.7773 38.984C94.7773 38.872 94.788 38.7653 94.8093 38.664L95.2653 36.392H94.5453L94.6653 35.76H95.3933L95.5773 34.832H96.3453L96.1613 35.76H97.3773L97.2493 36.392H96.0333L95.5773 38.648ZM99.3972 40.048C98.9972 40.048 98.6479 39.9733 98.3492 39.824C98.0506 39.6693 97.8186 39.4533 97.6532 39.176C97.4879 38.8987 97.4052 38.5787 97.4052 38.216C97.4052 37.7413 97.5119 37.3147 97.7252 36.936C97.9386 36.5573 98.2346 36.2613 98.6132 36.048C98.9919 35.8293 99.4186 35.72 99.8932 35.72C100.293 35.72 100.643 35.7947 100.941 35.944C101.24 36.0933 101.469 36.3067 101.629 36.584C101.795 36.856 101.877 37.176 101.877 37.544C101.877 38.0187 101.771 38.448 101.557 38.832C101.344 39.2107 101.048 39.5093 100.669 39.728C100.296 39.9413 99.8719 40.048 99.3972 40.048ZM99.4452 39.376C99.7599 39.376 100.043 39.3013 100.293 39.152C100.549 38.9973 100.747 38.784 100.885 38.512C101.029 38.24 101.101 37.9307 101.101 37.584C101.101 37.2053 100.992 36.912 100.773 36.704C100.555 36.496 100.243 36.392 99.8372 36.392C99.5226 36.392 99.2399 36.4693 98.9892 36.624C98.7386 36.7733 98.5412 36.984 98.3972 37.256C98.2532 37.528 98.1812 37.8373 98.1812 38.184C98.1812 38.5573 98.2906 38.8507 98.5092 39.064C98.7332 39.272 99.0452 39.376 99.4452 39.376ZM109.032 35.76L108.192 40H107.456L107.56 39.456C107.368 39.6533 107.141 39.8027 106.88 39.904C106.624 40 106.344 40.048 106.04 40.048C105.57 40.048 105.2 39.9227 104.928 39.672C104.656 39.4213 104.52 39.072 104.52 38.624C104.52 38.4747 104.536 38.312 104.568 38.136L105.04 35.76H105.808L105.336 38.144C105.309 38.288 105.296 38.408 105.296 38.504C105.296 38.7813 105.376 38.9947 105.536 39.144C105.701 39.288 105.944 39.36 106.264 39.36C106.669 39.36 107.005 39.2453 107.272 39.016C107.544 38.7867 107.725 38.4507 107.816 38.008L108.264 35.76H109.032ZM112.422 35.72C112.785 35.72 113.107 35.7947 113.39 35.944C113.673 36.088 113.894 36.2987 114.054 36.576C114.214 36.848 114.294 37.1707 114.294 37.544C114.294 38.024 114.19 38.4533 113.982 38.832C113.774 39.2107 113.486 39.5093 113.118 39.728C112.755 39.9413 112.347 40.048 111.894 40.048C111.531 40.048 111.219 39.984 110.958 39.856C110.697 39.7227 110.497 39.5307 110.358 39.28L109.91 41.552H109.142L110.294 35.76H111.03L110.926 36.288C111.321 35.9093 111.819 35.72 112.422 35.72ZM111.862 39.376C112.177 39.376 112.459 39.3013 112.71 39.152C112.961 38.9973 113.158 38.784 113.302 38.512C113.446 38.24 113.518 37.9307 113.518 37.584C113.518 37.2053 113.409 36.912 113.19 36.704C112.971 36.496 112.659 36.392 112.254 36.392C111.939 36.392 111.654 36.4693 111.398 36.624C111.147 36.7733 110.95 36.984 110.806 37.256C110.667 37.528 110.598 37.8373 110.598 38.184C110.598 38.5573 110.707 38.8507 110.926 39.064C111.15 39.272 111.462 39.376 111.862 39.376ZM115.891 34.064H116.659L115.475 40H114.707L115.891 34.064ZM118.725 40.048C118.325 40.048 117.976 39.9733 117.677 39.824C117.379 39.6693 117.147 39.4533 116.981 39.176C116.816 38.8987 116.733 38.5787 116.733 38.216C116.733 37.7413 116.84 37.3147 117.053 36.936C117.267 36.5573 117.563 36.2613 117.941 36.048C118.32 35.8293 118.747 35.72 119.221 35.72C119.621 35.72 119.971 35.7947 120.269 35.944C120.568 36.0933 120.797 36.3067 120.957 36.584C121.123 36.856 121.205 37.176 121.205 37.544C121.205 38.0187 121.099 38.448 120.885 38.832C120.672 39.2107 120.376 39.5093 119.997 39.728C119.624 39.9413 119.2 40.048 118.725 40.048ZM118.773 39.376C119.088 39.376 119.371 39.3013 119.621 39.152C119.877 38.9973 120.075 38.784 120.213 38.512C120.357 38.24 120.429 37.9307 120.429 37.584C120.429 37.2053 120.32 36.912 120.101 36.704C119.883 36.496 119.571 36.392 119.165 36.392C118.851 36.392 118.568 36.4693 118.317 36.624C118.067 36.7733 117.869 36.984 117.725 37.256C117.581 37.528 117.509 37.8373 117.509 38.184C117.509 38.5573 117.619 38.8507 117.837 39.064C118.061 39.272 118.373 39.376 118.773 39.376ZM126.451 35.76L125.611 40H124.875L124.979 39.48C124.787 39.6613 124.563 39.8027 124.307 39.904C124.057 40 123.782 40.048 123.483 40.048C123.121 40.048 122.798 39.976 122.515 39.832C122.233 39.6827 122.011 39.4693 121.851 39.192C121.691 38.9147 121.611 38.5893 121.611 38.216C121.611 37.736 121.715 37.3067 121.923 36.928C122.131 36.5493 122.417 36.2533 122.779 36.04C123.147 35.8267 123.558 35.72 124.011 35.72C124.374 35.72 124.683 35.784 124.939 35.912C125.201 36.04 125.401 36.2293 125.539 36.48L125.683 35.76H126.451ZM123.651 39.376C123.966 39.376 124.249 39.3013 124.499 39.152C124.755 38.9973 124.953 38.784 125.091 38.512C125.235 38.24 125.307 37.9307 125.307 37.584C125.307 37.2053 125.198 36.912 124.979 36.704C124.761 36.496 124.449 36.392 124.043 36.392C123.729 36.392 123.446 36.4693 123.195 36.624C122.945 36.7733 122.747 36.984 122.603 37.256C122.459 37.528 122.387 37.8373 122.387 38.184C122.387 38.5573 122.497 38.8507 122.715 39.064C122.939 39.272 123.251 39.376 123.651 39.376ZM132.049 34.064L130.865 40H130.129L130.233 39.48C130.041 39.6613 129.817 39.8027 129.561 39.904C129.31 40 129.035 40.048 128.737 40.048C128.374 40.048 128.051 39.976 127.769 39.832C127.486 39.6827 127.265 39.4693 127.105 39.192C126.945 38.9147 126.865 38.5893 126.865 38.216C126.865 37.736 126.969 37.3067 127.177 36.928C127.385 36.5493 127.67 36.2533 128.033 36.04C128.401 35.8267 128.811 35.72 129.265 35.72C129.627 35.72 129.939 35.7867 130.201 35.92C130.467 36.048 130.667 36.2373 130.801 36.488L131.281 34.064H132.049ZM128.905 39.376C129.219 39.376 129.502 39.3013 129.753 39.152C130.009 38.9973 130.206 38.784 130.345 38.512C130.489 38.24 130.561 37.9307 130.561 37.584C130.561 37.2053 130.451 36.912 130.233 36.704C130.014 36.496 129.702 36.392 129.297 36.392C128.982 36.392 128.699 36.4693 128.449 36.624C128.198 36.7733 128.001 36.984 127.857 37.256C127.713 37.528 127.641 37.8373 127.641 38.184C127.641 38.5573 127.75 38.8507 127.969 39.064C128.193 39.272 128.505 39.376 128.905 39.376ZM131.662 41.552C132.238 40.8107 132.688 39.9707 133.014 39.032C133.344 38.088 133.51 37.1467 133.51 36.208C133.51 35.504 133.395 34.7893 133.166 34.064H133.87C133.982 34.3573 134.072 34.6987 134.142 35.088C134.211 35.4773 134.246 35.864 134.246 36.248C134.246 37.2187 134.083 38.1787 133.758 39.128C133.438 40.0773 133 40.8853 132.446 41.552H131.662Z" fill="#97A7C3"/>
<path d="M212.083 31.25H207.917V18.75H201.667L210 8.33337L218.333 18.75H212.083V31.25Z" fill="#193566"/>
<path d="M193.333 37.4999H226.667V22.9166H230.833V37.4999C230.833 39.7979 228.965 41.6666 226.667 41.6666H193.333C191.035 41.6666 189.167 39.7979 189.167 37.4999V22.9166H193.333V37.4999Z" fill="#193566"/>
</svg>
