<svg width="18" height="18" viewBox="0 0 18 18" fill="none" xmlns="http://www.w3.org/2000/svg">
<path d="M14.25 4.5H12.75C12.75 2.43 11.07 0.75 9 0.75C6.93 0.75 5.25 2.43 5.25 4.5H3.75C2.925 4.5 2.25 5.175 2.25 6V15C2.25 15.825 2.925 16.5 3.75 16.5H14.25C15.075 16.5 15.75 15.825 15.75 15V6C15.75 5.175 15.075 4.5 14.25 4.5ZM9 2.25C10.245 2.25 11.25 3.255 11.25 4.5H6.75C6.75 3.255 7.755 2.25 9 2.25ZM14.25 15H3.75V6H14.25V15ZM9 9C7.755 9 6.75 7.995 6.75 6.75H5.25C5.25 8.82 6.93 10.5 9 10.5C11.07 10.5 12.75 8.82 12.75 6.75H11.25C11.25 7.995 10.245 9 9 9Z" fill="#193566"/>
</svg>
