<svg width="18" height="18" viewBox="0 0 18 18" fill="none" xmlns="http://www.w3.org/2000/svg">
<path d="M16.0575 8.55927L9.435 1.93511C9.1575 1.65754 8.775 1.5 8.3775 1.5H3C2.175 1.5 1.5 2.17517 1.5 3.00038V8.37922C1.5 8.77682 1.6575 9.15942 1.9425 9.43698L8.565 16.0611C9.15 16.6463 10.1025 16.6463 10.6875 16.0611L16.065 10.6823C16.65 10.0971 16.65 9.15191 16.0575 8.55927ZM9.6225 15.0034L3 8.37922V3.00038H8.3775L15 9.62453L9.6225 15.0034Z" fill="#193566"/>
<path d="M4.875 6.00056C5.49632 6.00056 6 5.49688 6 4.87556C6 4.25424 5.49632 3.75056 4.875 3.75056C4.25368 3.75056 3.75 4.25424 3.75 4.87556C3.75 5.49688 4.25368 6.00056 4.875 6.00056Z" fill="#193566"/>
</svg>
